%TF.GenerationSoftware,KiCad,Pcbnew,(5.1.8)-1*%
%TF.CreationDate,2022-03-17T13:58:37+00:00*%
%TF.ProjectId,wire_pi_hat,77697265-5f70-4695-9f68-61742e6b6963,rev?*%
%TF.SameCoordinates,Original*%
%TF.FileFunction,Legend,Top*%
%TF.FilePolarity,Positive*%
%FSLAX46Y46*%
G04 Gerber Fmt 4.6, Leading zero omitted, Abs format (unit mm)*
G04 Created by KiCad (PCBNEW (5.1.8)-1) date 2022-03-17 13:58:37*
%MOMM*%
%LPD*%
G01*
G04 APERTURE LIST*
%ADD10C,0.150000*%
%ADD11C,0.300000*%
%ADD12C,0.120000*%
G04 APERTURE END LIST*
D10*
X72202380Y-63452380D02*
X71202380Y-63452380D01*
X71202380Y-63214285D01*
X71250000Y-63071428D01*
X71345238Y-62976190D01*
X71440476Y-62928571D01*
X71630952Y-62880952D01*
X71773809Y-62880952D01*
X71964285Y-62928571D01*
X72059523Y-62976190D01*
X72154761Y-63071428D01*
X72202380Y-63214285D01*
X72202380Y-63452380D01*
X72202380Y-62023809D02*
X71678571Y-62023809D01*
X71583333Y-62071428D01*
X71535714Y-62166666D01*
X71535714Y-62357142D01*
X71583333Y-62452380D01*
X72154761Y-62023809D02*
X72202380Y-62119047D01*
X72202380Y-62357142D01*
X72154761Y-62452380D01*
X72059523Y-62500000D01*
X71964285Y-62500000D01*
X71869047Y-62452380D01*
X71821428Y-62357142D01*
X71821428Y-62119047D01*
X71773809Y-62023809D01*
X71535714Y-61690476D02*
X71535714Y-61309523D01*
X71202380Y-61547619D02*
X72059523Y-61547619D01*
X72154761Y-61500000D01*
X72202380Y-61404761D01*
X72202380Y-61309523D01*
X72202380Y-60547619D02*
X71678571Y-60547619D01*
X71583333Y-60595238D01*
X71535714Y-60690476D01*
X71535714Y-60880952D01*
X71583333Y-60976190D01*
X72154761Y-60547619D02*
X72202380Y-60642857D01*
X72202380Y-60880952D01*
X72154761Y-60976190D01*
X72059523Y-61023809D01*
X71964285Y-61023809D01*
X71869047Y-60976190D01*
X71821428Y-60880952D01*
X71821428Y-60642857D01*
X71773809Y-60547619D01*
X75071428Y-63702380D02*
X75071428Y-62940476D01*
X75452380Y-63321428D02*
X74690476Y-63321428D01*
X74452380Y-62559523D02*
X74452380Y-61940476D01*
X74833333Y-62273809D01*
X74833333Y-62130952D01*
X74880952Y-62035714D01*
X74928571Y-61988095D01*
X75023809Y-61940476D01*
X75261904Y-61940476D01*
X75357142Y-61988095D01*
X75404761Y-62035714D01*
X75452380Y-62130952D01*
X75452380Y-62416666D01*
X75404761Y-62511904D01*
X75357142Y-62559523D01*
X75357142Y-61511904D02*
X75404761Y-61464285D01*
X75452380Y-61511904D01*
X75404761Y-61559523D01*
X75357142Y-61511904D01*
X75452380Y-61511904D01*
X74452380Y-61130952D02*
X74452380Y-60511904D01*
X74833333Y-60845238D01*
X74833333Y-60702380D01*
X74880952Y-60607142D01*
X74928571Y-60559523D01*
X75023809Y-60511904D01*
X75261904Y-60511904D01*
X75357142Y-60559523D01*
X75404761Y-60607142D01*
X75452380Y-60702380D01*
X75452380Y-60988095D01*
X75404761Y-61083333D01*
X75357142Y-61130952D01*
X74785714Y-60178571D02*
X75452380Y-59940476D01*
X74785714Y-59702380D01*
X78250000Y-63011904D02*
X78202380Y-63107142D01*
X78202380Y-63250000D01*
X78250000Y-63392857D01*
X78345238Y-63488095D01*
X78440476Y-63535714D01*
X78630952Y-63583333D01*
X78773809Y-63583333D01*
X78964285Y-63535714D01*
X79059523Y-63488095D01*
X79154761Y-63392857D01*
X79202380Y-63250000D01*
X79202380Y-63154761D01*
X79154761Y-63011904D01*
X79107142Y-62964285D01*
X78773809Y-62964285D01*
X78773809Y-63154761D01*
X79202380Y-62535714D02*
X78202380Y-62535714D01*
X79202380Y-61964285D01*
X78202380Y-61964285D01*
X79202380Y-61488095D02*
X78202380Y-61488095D01*
X78202380Y-61250000D01*
X78250000Y-61107142D01*
X78345238Y-61011904D01*
X78440476Y-60964285D01*
X78630952Y-60916666D01*
X78773809Y-60916666D01*
X78964285Y-60964285D01*
X79059523Y-61011904D01*
X79154761Y-61107142D01*
X79202380Y-61250000D01*
X79202380Y-61488095D01*
D11*
X92250000Y-59428571D02*
X92607142Y-60928571D01*
X92892857Y-59857142D01*
X93178571Y-60928571D01*
X93535714Y-59428571D01*
X94107142Y-60928571D02*
X94107142Y-59928571D01*
X94107142Y-59428571D02*
X94035714Y-59500000D01*
X94107142Y-59571428D01*
X94178571Y-59500000D01*
X94107142Y-59428571D01*
X94107142Y-59571428D01*
X94821428Y-60928571D02*
X94821428Y-59928571D01*
X94821428Y-60214285D02*
X94892857Y-60071428D01*
X94964285Y-60000000D01*
X95107142Y-59928571D01*
X95250000Y-59928571D01*
X96321428Y-60857142D02*
X96178571Y-60928571D01*
X95892857Y-60928571D01*
X95750000Y-60857142D01*
X95678571Y-60714285D01*
X95678571Y-60142857D01*
X95750000Y-60000000D01*
X95892857Y-59928571D01*
X96178571Y-59928571D01*
X96321428Y-60000000D01*
X96392857Y-60142857D01*
X96392857Y-60285714D01*
X95678571Y-60428571D01*
X98178571Y-60928571D02*
X98178571Y-59428571D01*
X98750000Y-59428571D01*
X98892857Y-59500000D01*
X98964285Y-59571428D01*
X99035714Y-59714285D01*
X99035714Y-59928571D01*
X98964285Y-60071428D01*
X98892857Y-60142857D01*
X98750000Y-60214285D01*
X98178571Y-60214285D01*
X99678571Y-60928571D02*
X99678571Y-59928571D01*
X99678571Y-59428571D02*
X99607142Y-59500000D01*
X99678571Y-59571428D01*
X99750000Y-59500000D01*
X99678571Y-59428571D01*
X99678571Y-59571428D01*
X101535714Y-60928571D02*
X101535714Y-59428571D01*
X101535714Y-60142857D02*
X102392857Y-60142857D01*
X102392857Y-60928571D02*
X102392857Y-59428571D01*
X103750000Y-60928571D02*
X103750000Y-60142857D01*
X103678571Y-60000000D01*
X103535714Y-59928571D01*
X103250000Y-59928571D01*
X103107142Y-60000000D01*
X103750000Y-60857142D02*
X103607142Y-60928571D01*
X103250000Y-60928571D01*
X103107142Y-60857142D01*
X103035714Y-60714285D01*
X103035714Y-60571428D01*
X103107142Y-60428571D01*
X103250000Y-60357142D01*
X103607142Y-60357142D01*
X103750000Y-60285714D01*
X104250000Y-59928571D02*
X104821428Y-59928571D01*
X104464285Y-59428571D02*
X104464285Y-60714285D01*
X104535714Y-60857142D01*
X104678571Y-60928571D01*
X104821428Y-60928571D01*
D12*
%TO.C,R1*%
X79370000Y-45250000D02*
X78600000Y-45250000D01*
X71290000Y-45250000D02*
X72060000Y-45250000D01*
X78600000Y-43880000D02*
X72060000Y-43880000D01*
X78600000Y-46620000D02*
X78600000Y-43880000D01*
X72060000Y-46620000D02*
X78600000Y-46620000D01*
X72060000Y-43880000D02*
X72060000Y-46620000D01*
%TO.C,J5*%
X99450000Y-57800000D02*
X99850000Y-57800000D01*
X99450000Y-57160000D02*
X99450000Y-57800000D01*
X107355000Y-53941000D02*
X107226000Y-54069000D01*
X109570000Y-51725000D02*
X109476000Y-51819000D01*
X107525000Y-54181000D02*
X107431000Y-54274000D01*
X109775000Y-51931000D02*
X109646000Y-52059000D01*
X103855000Y-53941000D02*
X103726000Y-54069000D01*
X106070000Y-51725000D02*
X105976000Y-51819000D01*
X104025000Y-54181000D02*
X103931000Y-54274000D01*
X106275000Y-51931000D02*
X106146000Y-52059000D01*
X110310000Y-49840000D02*
X110310000Y-57560000D01*
X99690000Y-49840000D02*
X99690000Y-57560000D01*
X99690000Y-57560000D02*
X110310000Y-57560000D01*
X99690000Y-49840000D02*
X110310000Y-49840000D01*
X99690000Y-56000000D02*
X110310000Y-56000000D01*
X99690000Y-57100000D02*
X110310000Y-57100000D01*
X110180000Y-53000000D02*
G75*
G03*
X110180000Y-53000000I-1680000J0D01*
G01*
X106680000Y-53000000D02*
G75*
G03*
X106680000Y-53000000I-1680000J0D01*
G01*
X101528674Y-54680099D02*
G75*
G02*
X100634000Y-54440000I-28674J1680099D01*
G01*
X100074642Y-53889894D02*
G75*
G02*
X100060000Y-52134000I1425358J889894D01*
G01*
X100610106Y-51574642D02*
G75*
G02*
X102366000Y-51560000I889894J-1425358D01*
G01*
X102925505Y-52109807D02*
G75*
G02*
X102925000Y-53891000I-1425505J-890193D01*
G01*
X102390264Y-54424721D02*
G75*
G02*
X101500000Y-54680000I-890264J1424721D01*
G01*
%TO.C,J4*%
X84200000Y-57800000D02*
X84600000Y-57800000D01*
X84200000Y-57160000D02*
X84200000Y-57800000D01*
X92105000Y-53941000D02*
X91976000Y-54069000D01*
X94320000Y-51725000D02*
X94226000Y-51819000D01*
X92275000Y-54181000D02*
X92181000Y-54274000D01*
X94525000Y-51931000D02*
X94396000Y-52059000D01*
X88605000Y-53941000D02*
X88476000Y-54069000D01*
X90820000Y-51725000D02*
X90726000Y-51819000D01*
X88775000Y-54181000D02*
X88681000Y-54274000D01*
X91025000Y-51931000D02*
X90896000Y-52059000D01*
X95060000Y-49840000D02*
X95060000Y-57560000D01*
X84440000Y-49840000D02*
X84440000Y-57560000D01*
X84440000Y-57560000D02*
X95060000Y-57560000D01*
X84440000Y-49840000D02*
X95060000Y-49840000D01*
X84440000Y-56000000D02*
X95060000Y-56000000D01*
X84440000Y-57100000D02*
X95060000Y-57100000D01*
X94930000Y-53000000D02*
G75*
G03*
X94930000Y-53000000I-1680000J0D01*
G01*
X91430000Y-53000000D02*
G75*
G03*
X91430000Y-53000000I-1680000J0D01*
G01*
X86278674Y-54680099D02*
G75*
G02*
X85384000Y-54440000I-28674J1680099D01*
G01*
X84824642Y-53889894D02*
G75*
G02*
X84810000Y-52134000I1425358J889894D01*
G01*
X85360106Y-51574642D02*
G75*
G02*
X87116000Y-51560000I889894J-1425358D01*
G01*
X87675505Y-52109807D02*
G75*
G02*
X87675000Y-53891000I-1425505J-890193D01*
G01*
X87140264Y-54424721D02*
G75*
G02*
X86250000Y-54680000I-890264J1424721D01*
G01*
%TO.C,J2*%
X69450000Y-57800000D02*
X69850000Y-57800000D01*
X69450000Y-57160000D02*
X69450000Y-57800000D01*
X77355000Y-53941000D02*
X77226000Y-54069000D01*
X79570000Y-51725000D02*
X79476000Y-51819000D01*
X77525000Y-54181000D02*
X77431000Y-54274000D01*
X79775000Y-51931000D02*
X79646000Y-52059000D01*
X73855000Y-53941000D02*
X73726000Y-54069000D01*
X76070000Y-51725000D02*
X75976000Y-51819000D01*
X74025000Y-54181000D02*
X73931000Y-54274000D01*
X76275000Y-51931000D02*
X76146000Y-52059000D01*
X80310000Y-49840000D02*
X80310000Y-57560000D01*
X69690000Y-49840000D02*
X69690000Y-57560000D01*
X69690000Y-57560000D02*
X80310000Y-57560000D01*
X69690000Y-49840000D02*
X80310000Y-49840000D01*
X69690000Y-56000000D02*
X80310000Y-56000000D01*
X69690000Y-57100000D02*
X80310000Y-57100000D01*
X80180000Y-53000000D02*
G75*
G03*
X80180000Y-53000000I-1680000J0D01*
G01*
X76680000Y-53000000D02*
G75*
G03*
X76680000Y-53000000I-1680000J0D01*
G01*
X71528674Y-54680099D02*
G75*
G02*
X70634000Y-54440000I-28674J1680099D01*
G01*
X70074642Y-53889894D02*
G75*
G02*
X70060000Y-52134000I1425358J889894D01*
G01*
X70610106Y-51574642D02*
G75*
G02*
X72366000Y-51560000I889894J-1425358D01*
G01*
X72925505Y-52109807D02*
G75*
G02*
X72925000Y-53891000I-1425505J-890193D01*
G01*
X72390264Y-54424721D02*
G75*
G02*
X71500000Y-54680000I-890264J1424721D01*
G01*
%TO.C,J1*%
X54200000Y-57800000D02*
X54600000Y-57800000D01*
X54200000Y-57160000D02*
X54200000Y-57800000D01*
X62105000Y-53941000D02*
X61976000Y-54069000D01*
X64320000Y-51725000D02*
X64226000Y-51819000D01*
X62275000Y-54181000D02*
X62181000Y-54274000D01*
X64525000Y-51931000D02*
X64396000Y-52059000D01*
X58605000Y-53941000D02*
X58476000Y-54069000D01*
X60820000Y-51725000D02*
X60726000Y-51819000D01*
X58775000Y-54181000D02*
X58681000Y-54274000D01*
X61025000Y-51931000D02*
X60896000Y-52059000D01*
X65060000Y-49840000D02*
X65060000Y-57560000D01*
X54440000Y-49840000D02*
X54440000Y-57560000D01*
X54440000Y-57560000D02*
X65060000Y-57560000D01*
X54440000Y-49840000D02*
X65060000Y-49840000D01*
X54440000Y-56000000D02*
X65060000Y-56000000D01*
X54440000Y-57100000D02*
X65060000Y-57100000D01*
X64930000Y-53000000D02*
G75*
G03*
X64930000Y-53000000I-1680000J0D01*
G01*
X61430000Y-53000000D02*
G75*
G03*
X61430000Y-53000000I-1680000J0D01*
G01*
X56278674Y-54680099D02*
G75*
G02*
X55384000Y-54440000I-28674J1680099D01*
G01*
X54824642Y-53889894D02*
G75*
G02*
X54810000Y-52134000I1425358J889894D01*
G01*
X55360106Y-51574642D02*
G75*
G02*
X57116000Y-51560000I889894J-1425358D01*
G01*
X57675505Y-52109807D02*
G75*
G02*
X57675000Y-53891000I-1425505J-890193D01*
G01*
X57140264Y-54424721D02*
G75*
G02*
X56250000Y-54680000I-890264J1424721D01*
G01*
%TO.C,C1*%
X95470000Y-43130000D02*
X95470000Y-47870000D01*
X88030000Y-43130000D02*
X88030000Y-47870000D01*
X88030000Y-47870000D02*
X95470000Y-47870000D01*
X88030000Y-43130000D02*
X95470000Y-43130000D01*
%TO.C,J3*%
X56920000Y-41580000D02*
X56920000Y-40250000D01*
X58250000Y-41580000D02*
X56920000Y-41580000D01*
X56920000Y-38980000D02*
X56920000Y-36380000D01*
X59520000Y-38980000D02*
X56920000Y-38980000D01*
X59520000Y-41580000D02*
X59520000Y-38980000D01*
X56920000Y-36380000D02*
X107840000Y-36380000D01*
X59520000Y-41580000D02*
X107840000Y-41580000D01*
X107840000Y-41580000D02*
X107840000Y-36380000D01*
%TO.C,R1*%
D10*
X75163333Y-43332380D02*
X74830000Y-42856190D01*
X74591904Y-43332380D02*
X74591904Y-42332380D01*
X74972857Y-42332380D01*
X75068095Y-42380000D01*
X75115714Y-42427619D01*
X75163333Y-42522857D01*
X75163333Y-42665714D01*
X75115714Y-42760952D01*
X75068095Y-42808571D01*
X74972857Y-42856190D01*
X74591904Y-42856190D01*
X76115714Y-43332380D02*
X75544285Y-43332380D01*
X75830000Y-43332380D02*
X75830000Y-42332380D01*
X75734761Y-42475238D01*
X75639523Y-42570476D01*
X75544285Y-42618095D01*
%TO.C,J5*%
X104666666Y-48292380D02*
X104666666Y-49006666D01*
X104619047Y-49149523D01*
X104523809Y-49244761D01*
X104380952Y-49292380D01*
X104285714Y-49292380D01*
X105619047Y-48292380D02*
X105142857Y-48292380D01*
X105095238Y-48768571D01*
X105142857Y-48720952D01*
X105238095Y-48673333D01*
X105476190Y-48673333D01*
X105571428Y-48720952D01*
X105619047Y-48768571D01*
X105666666Y-48863809D01*
X105666666Y-49101904D01*
X105619047Y-49197142D01*
X105571428Y-49244761D01*
X105476190Y-49292380D01*
X105238095Y-49292380D01*
X105142857Y-49244761D01*
X105095238Y-49197142D01*
%TO.C,J4*%
X89416666Y-48292380D02*
X89416666Y-49006666D01*
X89369047Y-49149523D01*
X89273809Y-49244761D01*
X89130952Y-49292380D01*
X89035714Y-49292380D01*
X90321428Y-48625714D02*
X90321428Y-49292380D01*
X90083333Y-48244761D02*
X89845238Y-48959047D01*
X90464285Y-48959047D01*
%TO.C,J2*%
X74666666Y-48292380D02*
X74666666Y-49006666D01*
X74619047Y-49149523D01*
X74523809Y-49244761D01*
X74380952Y-49292380D01*
X74285714Y-49292380D01*
X75095238Y-48387619D02*
X75142857Y-48340000D01*
X75238095Y-48292380D01*
X75476190Y-48292380D01*
X75571428Y-48340000D01*
X75619047Y-48387619D01*
X75666666Y-48482857D01*
X75666666Y-48578095D01*
X75619047Y-48720952D01*
X75047619Y-49292380D01*
X75666666Y-49292380D01*
%TO.C,J1*%
X59416666Y-48292380D02*
X59416666Y-49006666D01*
X59369047Y-49149523D01*
X59273809Y-49244761D01*
X59130952Y-49292380D01*
X59035714Y-49292380D01*
X60416666Y-49292380D02*
X59845238Y-49292380D01*
X60130952Y-49292380D02*
X60130952Y-48292380D01*
X60035714Y-48435238D01*
X59940476Y-48530476D01*
X59845238Y-48578095D01*
%TO.C,C1*%
X91583333Y-42357142D02*
X91535714Y-42404761D01*
X91392857Y-42452380D01*
X91297619Y-42452380D01*
X91154761Y-42404761D01*
X91059523Y-42309523D01*
X91011904Y-42214285D01*
X90964285Y-42023809D01*
X90964285Y-41880952D01*
X91011904Y-41690476D01*
X91059523Y-41595238D01*
X91154761Y-41500000D01*
X91297619Y-41452380D01*
X91392857Y-41452380D01*
X91535714Y-41500000D01*
X91583333Y-41547619D01*
X92535714Y-42452380D02*
X91964285Y-42452380D01*
X92250000Y-42452380D02*
X92250000Y-41452380D01*
X92154761Y-41595238D01*
X92059523Y-41690476D01*
X91964285Y-41738095D01*
%TO.C,J3*%
X55372380Y-39313333D02*
X56086666Y-39313333D01*
X56229523Y-39360952D01*
X56324761Y-39456190D01*
X56372380Y-39599047D01*
X56372380Y-39694285D01*
X55372380Y-38932380D02*
X55372380Y-38313333D01*
X55753333Y-38646666D01*
X55753333Y-38503809D01*
X55800952Y-38408571D01*
X55848571Y-38360952D01*
X55943809Y-38313333D01*
X56181904Y-38313333D01*
X56277142Y-38360952D01*
X56324761Y-38408571D01*
X56372380Y-38503809D01*
X56372380Y-38789523D01*
X56324761Y-38884761D01*
X56277142Y-38932380D01*
%TD*%
M02*
