M48
INCH,TZ
T1C0.0315
T2C0.0394
T3C0.0472
T4C0.1063
%
G90
G05
T1
X35138Y-17913
X37106Y-17913
X27657Y-17815
X31657Y-17815
T2
X22933Y-14846
X22933Y-15846
X23933Y-14846
X23933Y-15846
X24933Y-14846
X24933Y-15846
X25933Y-14846
X25933Y-15846
X26933Y-14846
X26933Y-15846
X27933Y-14846
X27933Y-15846
X28933Y-14846
X28933Y-15846
X29933Y-14846
X29933Y-15846
X30933Y-14846
X30933Y-15846
X31933Y-14846
X31933Y-15846
X32933Y-14846
X32933Y-15846
X33933Y-14846
X33933Y-15846
X34933Y-14846
X34933Y-15846
X35933Y-14846
X35933Y-15846
X36933Y-14846
X36933Y-15846
X37933Y-14846
X37933Y-15846
X38933Y-14846
X38933Y-15846
X39933Y-14846
X39933Y-15846
X40933Y-14846
X40933Y-15846
X41933Y-14846
X41933Y-15846
T3
X39961Y-20866
X41339Y-20866
X42717Y-20866
X22146Y-20866
X23524Y-20866
X24902Y-20866
X28150Y-20866
X29528Y-20866
X30906Y-20866
X33957Y-20866
X35335Y-20866
X36713Y-20866
T4
X21063Y-15354
X43898Y-15354
X21063Y-24409
X43898Y-24409
T0
M30
