%TF.GenerationSoftware,KiCad,Pcbnew,(5.1.8)-1*%
%TF.CreationDate,2022-03-17T13:58:37+00:00*%
%TF.ProjectId,wire_pi_hat,77697265-5f70-4695-9f68-61742e6b6963,rev?*%
%TF.SameCoordinates,Original*%
%TF.FileFunction,Soldermask,Bot*%
%TF.FilePolarity,Negative*%
%FSLAX46Y46*%
G04 Gerber Fmt 4.6, Leading zero omitted, Abs format (unit mm)*
G04 Created by KiCad (PCBNEW (5.1.8)-1) date 2022-03-17 13:58:37*
%MOMM*%
%LPD*%
G01*
G04 APERTURE LIST*
%ADD10O,1.600000X1.600000*%
%ADD11C,1.600000*%
%ADD12C,2.400000*%
%ADD13R,2.400000X2.400000*%
%ADD14C,5.400000*%
%ADD15O,1.700000X1.700000*%
%ADD16R,1.700000X1.700000*%
G04 APERTURE END LIST*
D10*
%TO.C,R1*%
X80410000Y-45250000D03*
D11*
X70250000Y-45250000D03*
%TD*%
D12*
%TO.C,J5*%
X108500000Y-53000000D03*
X105000000Y-53000000D03*
D13*
X101500000Y-53000000D03*
%TD*%
D12*
%TO.C,J4*%
X93250000Y-53000000D03*
X89750000Y-53000000D03*
D13*
X86250000Y-53000000D03*
%TD*%
D12*
%TO.C,J2*%
X78500000Y-53000000D03*
X75000000Y-53000000D03*
D13*
X71500000Y-53000000D03*
%TD*%
D12*
%TO.C,J1*%
X63250000Y-53000000D03*
X59750000Y-53000000D03*
D13*
X56250000Y-53000000D03*
%TD*%
D11*
%TO.C,C1*%
X94250000Y-45500000D03*
X89250000Y-45500000D03*
%TD*%
D14*
%TO.C,H4*%
X111500000Y-62000000D03*
%TD*%
%TO.C,H3*%
X53500000Y-62000000D03*
%TD*%
%TO.C,H2*%
X111500000Y-39000000D03*
%TD*%
%TO.C,H1*%
X53500000Y-39000000D03*
%TD*%
D15*
%TO.C,J3*%
X106510000Y-37710000D03*
X106510000Y-40250000D03*
X103970000Y-37710000D03*
X103970000Y-40250000D03*
X101430000Y-37710000D03*
X101430000Y-40250000D03*
X98890000Y-37710000D03*
X98890000Y-40250000D03*
X96350000Y-37710000D03*
X96350000Y-40250000D03*
X93810000Y-37710000D03*
X93810000Y-40250000D03*
X91270000Y-37710000D03*
X91270000Y-40250000D03*
X88730000Y-37710000D03*
X88730000Y-40250000D03*
X86190000Y-37710000D03*
X86190000Y-40250000D03*
X83650000Y-37710000D03*
X83650000Y-40250000D03*
X81110000Y-37710000D03*
X81110000Y-40250000D03*
X78570000Y-37710000D03*
X78570000Y-40250000D03*
X76030000Y-37710000D03*
X76030000Y-40250000D03*
X73490000Y-37710000D03*
X73490000Y-40250000D03*
X70950000Y-37710000D03*
X70950000Y-40250000D03*
X68410000Y-37710000D03*
X68410000Y-40250000D03*
X65870000Y-37710000D03*
X65870000Y-40250000D03*
X63330000Y-37710000D03*
X63330000Y-40250000D03*
X60790000Y-37710000D03*
X60790000Y-40250000D03*
X58250000Y-37710000D03*
D16*
X58250000Y-40250000D03*
%TD*%
M02*
