%TF.GenerationSoftware,KiCad,Pcbnew,(5.1.8)-1*%
%TF.CreationDate,2022-03-17T13:58:37+00:00*%
%TF.ProjectId,wire_pi_hat,77697265-5f70-4695-9f68-61742e6b6963,rev?*%
%TF.SameCoordinates,Original*%
%TF.FileFunction,Copper,L2,Bot*%
%TF.FilePolarity,Positive*%
%FSLAX46Y46*%
G04 Gerber Fmt 4.6, Leading zero omitted, Abs format (unit mm)*
G04 Created by KiCad (PCBNEW (5.1.8)-1) date 2022-03-17 13:58:37*
%MOMM*%
%LPD*%
G01*
G04 APERTURE LIST*
%TA.AperFunction,ComponentPad*%
%ADD10O,1.600000X1.600000*%
%TD*%
%TA.AperFunction,ComponentPad*%
%ADD11C,1.600000*%
%TD*%
%TA.AperFunction,ComponentPad*%
%ADD12C,2.400000*%
%TD*%
%TA.AperFunction,ComponentPad*%
%ADD13R,2.400000X2.400000*%
%TD*%
%TA.AperFunction,ComponentPad*%
%ADD14C,5.400000*%
%TD*%
%TA.AperFunction,ComponentPad*%
%ADD15O,1.700000X1.700000*%
%TD*%
%TA.AperFunction,ComponentPad*%
%ADD16R,1.700000X1.700000*%
%TD*%
%TA.AperFunction,Conductor*%
%ADD17C,0.250000*%
%TD*%
%TA.AperFunction,Conductor*%
%ADD18C,0.254000*%
%TD*%
%TA.AperFunction,Conductor*%
%ADD19C,0.100000*%
%TD*%
G04 APERTURE END LIST*
D10*
%TO.P,R1,2*%
%TO.N,Net-(J1-Pad1)*%
X80410000Y-45250000D03*
D11*
%TO.P,R1,1*%
%TO.N,+3V3*%
X70250000Y-45250000D03*
%TD*%
D12*
%TO.P,J5,3*%
%TO.N,GND*%
X108500000Y-53000000D03*
%TO.P,J5,2*%
%TO.N,+3V3*%
X105000000Y-53000000D03*
D13*
%TO.P,J5,1*%
%TO.N,Net-(J1-Pad1)*%
X101500000Y-53000000D03*
%TD*%
D12*
%TO.P,J4,3*%
%TO.N,GND*%
X93250000Y-53000000D03*
%TO.P,J4,2*%
%TO.N,+3V3*%
X89750000Y-53000000D03*
D13*
%TO.P,J4,1*%
%TO.N,Net-(J1-Pad1)*%
X86250000Y-53000000D03*
%TD*%
D12*
%TO.P,J2,3*%
%TO.N,GND*%
X78500000Y-53000000D03*
%TO.P,J2,2*%
%TO.N,+3V3*%
X75000000Y-53000000D03*
D13*
%TO.P,J2,1*%
%TO.N,Net-(J1-Pad1)*%
X71500000Y-53000000D03*
%TD*%
D12*
%TO.P,J1,3*%
%TO.N,GND*%
X63250000Y-53000000D03*
%TO.P,J1,2*%
%TO.N,+3V3*%
X59750000Y-53000000D03*
D13*
%TO.P,J1,1*%
%TO.N,Net-(J1-Pad1)*%
X56250000Y-53000000D03*
%TD*%
D11*
%TO.P,C1,2*%
%TO.N,GND*%
X94250000Y-45500000D03*
%TO.P,C1,1*%
%TO.N,+3V3*%
X89250000Y-45500000D03*
%TD*%
D14*
%TO.P,H4,1*%
%TO.N,N/C*%
X111500000Y-62000000D03*
%TD*%
%TO.P,H3,1*%
%TO.N,N/C*%
X53500000Y-62000000D03*
%TD*%
%TO.P,H2,1*%
%TO.N,N/C*%
X111500000Y-39000000D03*
%TD*%
%TO.P,H1,1*%
%TO.N,N/C*%
X53500000Y-39000000D03*
%TD*%
D15*
%TO.P,J3,40*%
%TO.N,Net-(J3-Pad40)*%
X106510000Y-37710000D03*
%TO.P,J3,39*%
%TO.N,GND*%
X106510000Y-40250000D03*
%TO.P,J3,38*%
%TO.N,Net-(J3-Pad38)*%
X103970000Y-37710000D03*
%TO.P,J3,37*%
%TO.N,Net-(J3-Pad37)*%
X103970000Y-40250000D03*
%TO.P,J3,36*%
%TO.N,Net-(J3-Pad36)*%
X101430000Y-37710000D03*
%TO.P,J3,35*%
%TO.N,Net-(J3-Pad35)*%
X101430000Y-40250000D03*
%TO.P,J3,34*%
%TO.N,GND*%
X98890000Y-37710000D03*
%TO.P,J3,33*%
%TO.N,Net-(J3-Pad33)*%
X98890000Y-40250000D03*
%TO.P,J3,32*%
%TO.N,Net-(J3-Pad32)*%
X96350000Y-37710000D03*
%TO.P,J3,31*%
%TO.N,Net-(J3-Pad31)*%
X96350000Y-40250000D03*
%TO.P,J3,30*%
%TO.N,GND*%
X93810000Y-37710000D03*
%TO.P,J3,29*%
%TO.N,Net-(J3-Pad29)*%
X93810000Y-40250000D03*
%TO.P,J3,28*%
%TO.N,Net-(J3-Pad28)*%
X91270000Y-37710000D03*
%TO.P,J3,27*%
%TO.N,Net-(J3-Pad27)*%
X91270000Y-40250000D03*
%TO.P,J3,26*%
%TO.N,Net-(J3-Pad26)*%
X88730000Y-37710000D03*
%TO.P,J3,25*%
%TO.N,GND*%
X88730000Y-40250000D03*
%TO.P,J3,24*%
%TO.N,Net-(J3-Pad24)*%
X86190000Y-37710000D03*
%TO.P,J3,23*%
%TO.N,Net-(J3-Pad23)*%
X86190000Y-40250000D03*
%TO.P,J3,22*%
%TO.N,Net-(J3-Pad22)*%
X83650000Y-37710000D03*
%TO.P,J3,21*%
%TO.N,Net-(J3-Pad21)*%
X83650000Y-40250000D03*
%TO.P,J3,20*%
%TO.N,GND*%
X81110000Y-37710000D03*
%TO.P,J3,19*%
%TO.N,Net-(J3-Pad19)*%
X81110000Y-40250000D03*
%TO.P,J3,18*%
%TO.N,Net-(J3-Pad18)*%
X78570000Y-37710000D03*
%TO.P,J3,17*%
%TO.N,Net-(J3-Pad17)*%
X78570000Y-40250000D03*
%TO.P,J3,16*%
%TO.N,Net-(J3-Pad16)*%
X76030000Y-37710000D03*
%TO.P,J3,15*%
%TO.N,Net-(J3-Pad15)*%
X76030000Y-40250000D03*
%TO.P,J3,14*%
%TO.N,GND*%
X73490000Y-37710000D03*
%TO.P,J3,13*%
%TO.N,Net-(J3-Pad13)*%
X73490000Y-40250000D03*
%TO.P,J3,12*%
%TO.N,Net-(J3-Pad12)*%
X70950000Y-37710000D03*
%TO.P,J3,11*%
%TO.N,Net-(J3-Pad11)*%
X70950000Y-40250000D03*
%TO.P,J3,10*%
%TO.N,Net-(J3-Pad10)*%
X68410000Y-37710000D03*
%TO.P,J3,9*%
%TO.N,GND*%
X68410000Y-40250000D03*
%TO.P,J3,8*%
%TO.N,Net-(J3-Pad8)*%
X65870000Y-37710000D03*
%TO.P,J3,7*%
%TO.N,Net-(J1-Pad1)*%
X65870000Y-40250000D03*
%TO.P,J3,6*%
%TO.N,GND*%
X63330000Y-37710000D03*
%TO.P,J3,5*%
%TO.N,Net-(J3-Pad5)*%
X63330000Y-40250000D03*
%TO.P,J3,4*%
%TO.N,+5V*%
X60790000Y-37710000D03*
%TO.P,J3,3*%
%TO.N,Net-(J3-Pad3)*%
X60790000Y-40250000D03*
%TO.P,J3,2*%
%TO.N,+5V*%
X58250000Y-37710000D03*
D16*
%TO.P,J3,1*%
%TO.N,+3V3*%
X58250000Y-40250000D03*
%TD*%
D17*
%TO.N,Net-(J1-Pad1)*%
X65870000Y-47370000D02*
X71500000Y-53000000D01*
X65870000Y-40250000D02*
X65870000Y-47370000D01*
X69744999Y-44124999D02*
X65870000Y-40250000D01*
X79284999Y-44124999D02*
X69744999Y-44124999D01*
X80410000Y-45250000D02*
X79284999Y-44124999D01*
%TD*%
D18*
%TO.N,GND*%
X109374061Y-36409536D02*
X108909536Y-36874061D01*
X108544561Y-37420285D01*
X108293162Y-38027216D01*
X108165000Y-38671531D01*
X108165000Y-39328469D01*
X108293162Y-39972784D01*
X108544561Y-40579715D01*
X108909536Y-41125939D01*
X109374061Y-41590464D01*
X109920285Y-41955439D01*
X110527216Y-42206838D01*
X111171531Y-42335000D01*
X111828469Y-42335000D01*
X112472784Y-42206838D01*
X113079715Y-41955439D01*
X113625939Y-41590464D01*
X114090464Y-41125939D01*
X114315000Y-40789897D01*
X114315001Y-60210104D01*
X114090464Y-59874061D01*
X113625939Y-59409536D01*
X113079715Y-59044561D01*
X112472784Y-58793162D01*
X111828469Y-58665000D01*
X111171531Y-58665000D01*
X110527216Y-58793162D01*
X109920285Y-59044561D01*
X109374061Y-59409536D01*
X108909536Y-59874061D01*
X108544561Y-60420285D01*
X108293162Y-61027216D01*
X108165000Y-61671531D01*
X108165000Y-62328469D01*
X108293162Y-62972784D01*
X108544561Y-63579715D01*
X108909536Y-64125939D01*
X109374061Y-64590464D01*
X109710103Y-64815000D01*
X55289897Y-64815000D01*
X55625939Y-64590464D01*
X56090464Y-64125939D01*
X56455439Y-63579715D01*
X56706838Y-62972784D01*
X56835000Y-62328469D01*
X56835000Y-61671531D01*
X56706838Y-61027216D01*
X56455439Y-60420285D01*
X56090464Y-59874061D01*
X55625939Y-59409536D01*
X55079715Y-59044561D01*
X54472784Y-58793162D01*
X53828469Y-58665000D01*
X53171531Y-58665000D01*
X52527216Y-58793162D01*
X51920285Y-59044561D01*
X51374061Y-59409536D01*
X50909536Y-59874061D01*
X50685000Y-60210103D01*
X50685000Y-51800000D01*
X54411928Y-51800000D01*
X54411928Y-54200000D01*
X54424188Y-54324482D01*
X54460498Y-54444180D01*
X54519463Y-54554494D01*
X54598815Y-54651185D01*
X54695506Y-54730537D01*
X54805820Y-54789502D01*
X54925518Y-54825812D01*
X55050000Y-54838072D01*
X57450000Y-54838072D01*
X57574482Y-54825812D01*
X57694180Y-54789502D01*
X57804494Y-54730537D01*
X57901185Y-54651185D01*
X57980537Y-54554494D01*
X58039502Y-54444180D01*
X58075812Y-54324482D01*
X58088072Y-54200000D01*
X58088072Y-53782838D01*
X58123844Y-53869199D01*
X58324662Y-54169744D01*
X58580256Y-54425338D01*
X58880801Y-54626156D01*
X59214750Y-54764482D01*
X59569268Y-54835000D01*
X59930732Y-54835000D01*
X60285250Y-54764482D01*
X60619199Y-54626156D01*
X60919744Y-54425338D01*
X61067102Y-54277980D01*
X62151626Y-54277980D01*
X62271514Y-54562836D01*
X62595210Y-54723699D01*
X62944069Y-54818322D01*
X63304684Y-54843067D01*
X63663198Y-54796985D01*
X64005833Y-54681846D01*
X64228486Y-54562836D01*
X64348374Y-54277980D01*
X63250000Y-53179605D01*
X62151626Y-54277980D01*
X61067102Y-54277980D01*
X61175338Y-54169744D01*
X61376156Y-53869199D01*
X61503190Y-53562511D01*
X61568154Y-53755833D01*
X61687164Y-53978486D01*
X61972020Y-54098374D01*
X63070395Y-53000000D01*
X63429605Y-53000000D01*
X64527980Y-54098374D01*
X64812836Y-53978486D01*
X64973699Y-53654790D01*
X65068322Y-53305931D01*
X65093067Y-52945316D01*
X65046985Y-52586802D01*
X64931846Y-52244167D01*
X64812836Y-52021514D01*
X64527980Y-51901626D01*
X63429605Y-53000000D01*
X63070395Y-53000000D01*
X61972020Y-51901626D01*
X61687164Y-52021514D01*
X61526301Y-52345210D01*
X61502031Y-52434690D01*
X61376156Y-52130801D01*
X61175338Y-51830256D01*
X61067102Y-51722020D01*
X62151626Y-51722020D01*
X63250000Y-52820395D01*
X64348374Y-51722020D01*
X64228486Y-51437164D01*
X63904790Y-51276301D01*
X63555931Y-51181678D01*
X63195316Y-51156933D01*
X62836802Y-51203015D01*
X62494167Y-51318154D01*
X62271514Y-51437164D01*
X62151626Y-51722020D01*
X61067102Y-51722020D01*
X60919744Y-51574662D01*
X60619199Y-51373844D01*
X60285250Y-51235518D01*
X59930732Y-51165000D01*
X59569268Y-51165000D01*
X59214750Y-51235518D01*
X58880801Y-51373844D01*
X58580256Y-51574662D01*
X58324662Y-51830256D01*
X58123844Y-52130801D01*
X58088072Y-52217162D01*
X58088072Y-51800000D01*
X58075812Y-51675518D01*
X58039502Y-51555820D01*
X57980537Y-51445506D01*
X57901185Y-51348815D01*
X57804494Y-51269463D01*
X57694180Y-51210498D01*
X57574482Y-51174188D01*
X57450000Y-51161928D01*
X55050000Y-51161928D01*
X54925518Y-51174188D01*
X54805820Y-51210498D01*
X54695506Y-51269463D01*
X54598815Y-51348815D01*
X54519463Y-51445506D01*
X54460498Y-51555820D01*
X54424188Y-51675518D01*
X54411928Y-51800000D01*
X50685000Y-51800000D01*
X50685000Y-40789897D01*
X50909536Y-41125939D01*
X51374061Y-41590464D01*
X51920285Y-41955439D01*
X52527216Y-42206838D01*
X53171531Y-42335000D01*
X53828469Y-42335000D01*
X54472784Y-42206838D01*
X55079715Y-41955439D01*
X55625939Y-41590464D01*
X56090464Y-41125939D01*
X56455439Y-40579715D01*
X56706838Y-39972784D01*
X56761928Y-39695827D01*
X56761928Y-41100000D01*
X56774188Y-41224482D01*
X56810498Y-41344180D01*
X56869463Y-41454494D01*
X56948815Y-41551185D01*
X57045506Y-41630537D01*
X57155820Y-41689502D01*
X57275518Y-41725812D01*
X57400000Y-41738072D01*
X59100000Y-41738072D01*
X59224482Y-41725812D01*
X59344180Y-41689502D01*
X59454494Y-41630537D01*
X59551185Y-41551185D01*
X59630537Y-41454494D01*
X59689502Y-41344180D01*
X59711513Y-41271620D01*
X59843368Y-41403475D01*
X60086589Y-41565990D01*
X60356842Y-41677932D01*
X60643740Y-41735000D01*
X60936260Y-41735000D01*
X61223158Y-41677932D01*
X61493411Y-41565990D01*
X61736632Y-41403475D01*
X61943475Y-41196632D01*
X62060000Y-41022240D01*
X62176525Y-41196632D01*
X62383368Y-41403475D01*
X62626589Y-41565990D01*
X62896842Y-41677932D01*
X63183740Y-41735000D01*
X63476260Y-41735000D01*
X63763158Y-41677932D01*
X64033411Y-41565990D01*
X64276632Y-41403475D01*
X64483475Y-41196632D01*
X64600000Y-41022240D01*
X64716525Y-41196632D01*
X64923368Y-41403475D01*
X65110000Y-41528179D01*
X65110001Y-47332668D01*
X65106324Y-47370000D01*
X65120998Y-47518985D01*
X65164454Y-47662246D01*
X65235026Y-47794276D01*
X65306201Y-47881002D01*
X65330000Y-47910001D01*
X65358998Y-47933799D01*
X69661928Y-52236730D01*
X69661928Y-54200000D01*
X69674188Y-54324482D01*
X69710498Y-54444180D01*
X69769463Y-54554494D01*
X69848815Y-54651185D01*
X69945506Y-54730537D01*
X70055820Y-54789502D01*
X70175518Y-54825812D01*
X70300000Y-54838072D01*
X72700000Y-54838072D01*
X72824482Y-54825812D01*
X72944180Y-54789502D01*
X73054494Y-54730537D01*
X73151185Y-54651185D01*
X73230537Y-54554494D01*
X73289502Y-54444180D01*
X73325812Y-54324482D01*
X73338072Y-54200000D01*
X73338072Y-53782838D01*
X73373844Y-53869199D01*
X73574662Y-54169744D01*
X73830256Y-54425338D01*
X74130801Y-54626156D01*
X74464750Y-54764482D01*
X74819268Y-54835000D01*
X75180732Y-54835000D01*
X75535250Y-54764482D01*
X75869199Y-54626156D01*
X76169744Y-54425338D01*
X76317102Y-54277980D01*
X77401626Y-54277980D01*
X77521514Y-54562836D01*
X77845210Y-54723699D01*
X78194069Y-54818322D01*
X78554684Y-54843067D01*
X78913198Y-54796985D01*
X79255833Y-54681846D01*
X79478486Y-54562836D01*
X79598374Y-54277980D01*
X78500000Y-53179605D01*
X77401626Y-54277980D01*
X76317102Y-54277980D01*
X76425338Y-54169744D01*
X76626156Y-53869199D01*
X76753190Y-53562511D01*
X76818154Y-53755833D01*
X76937164Y-53978486D01*
X77222020Y-54098374D01*
X78320395Y-53000000D01*
X78679605Y-53000000D01*
X79777980Y-54098374D01*
X80062836Y-53978486D01*
X80223699Y-53654790D01*
X80318322Y-53305931D01*
X80343067Y-52945316D01*
X80296985Y-52586802D01*
X80181846Y-52244167D01*
X80062836Y-52021514D01*
X79777980Y-51901626D01*
X78679605Y-53000000D01*
X78320395Y-53000000D01*
X77222020Y-51901626D01*
X76937164Y-52021514D01*
X76776301Y-52345210D01*
X76752031Y-52434690D01*
X76626156Y-52130801D01*
X76425338Y-51830256D01*
X76317102Y-51722020D01*
X77401626Y-51722020D01*
X78500000Y-52820395D01*
X79520394Y-51800000D01*
X84411928Y-51800000D01*
X84411928Y-54200000D01*
X84424188Y-54324482D01*
X84460498Y-54444180D01*
X84519463Y-54554494D01*
X84598815Y-54651185D01*
X84695506Y-54730537D01*
X84805820Y-54789502D01*
X84925518Y-54825812D01*
X85050000Y-54838072D01*
X87450000Y-54838072D01*
X87574482Y-54825812D01*
X87694180Y-54789502D01*
X87804494Y-54730537D01*
X87901185Y-54651185D01*
X87980537Y-54554494D01*
X88039502Y-54444180D01*
X88075812Y-54324482D01*
X88088072Y-54200000D01*
X88088072Y-53782838D01*
X88123844Y-53869199D01*
X88324662Y-54169744D01*
X88580256Y-54425338D01*
X88880801Y-54626156D01*
X89214750Y-54764482D01*
X89569268Y-54835000D01*
X89930732Y-54835000D01*
X90285250Y-54764482D01*
X90619199Y-54626156D01*
X90919744Y-54425338D01*
X91067102Y-54277980D01*
X92151626Y-54277980D01*
X92271514Y-54562836D01*
X92595210Y-54723699D01*
X92944069Y-54818322D01*
X93304684Y-54843067D01*
X93663198Y-54796985D01*
X94005833Y-54681846D01*
X94228486Y-54562836D01*
X94348374Y-54277980D01*
X93250000Y-53179605D01*
X92151626Y-54277980D01*
X91067102Y-54277980D01*
X91175338Y-54169744D01*
X91376156Y-53869199D01*
X91503190Y-53562511D01*
X91568154Y-53755833D01*
X91687164Y-53978486D01*
X91972020Y-54098374D01*
X93070395Y-53000000D01*
X93429605Y-53000000D01*
X94527980Y-54098374D01*
X94812836Y-53978486D01*
X94973699Y-53654790D01*
X95068322Y-53305931D01*
X95093067Y-52945316D01*
X95046985Y-52586802D01*
X94931846Y-52244167D01*
X94812836Y-52021514D01*
X94527980Y-51901626D01*
X93429605Y-53000000D01*
X93070395Y-53000000D01*
X91972020Y-51901626D01*
X91687164Y-52021514D01*
X91526301Y-52345210D01*
X91502031Y-52434690D01*
X91376156Y-52130801D01*
X91175338Y-51830256D01*
X91067102Y-51722020D01*
X92151626Y-51722020D01*
X93250000Y-52820395D01*
X94270394Y-51800000D01*
X99661928Y-51800000D01*
X99661928Y-54200000D01*
X99674188Y-54324482D01*
X99710498Y-54444180D01*
X99769463Y-54554494D01*
X99848815Y-54651185D01*
X99945506Y-54730537D01*
X100055820Y-54789502D01*
X100175518Y-54825812D01*
X100300000Y-54838072D01*
X102700000Y-54838072D01*
X102824482Y-54825812D01*
X102944180Y-54789502D01*
X103054494Y-54730537D01*
X103151185Y-54651185D01*
X103230537Y-54554494D01*
X103289502Y-54444180D01*
X103325812Y-54324482D01*
X103338072Y-54200000D01*
X103338072Y-53782838D01*
X103373844Y-53869199D01*
X103574662Y-54169744D01*
X103830256Y-54425338D01*
X104130801Y-54626156D01*
X104464750Y-54764482D01*
X104819268Y-54835000D01*
X105180732Y-54835000D01*
X105535250Y-54764482D01*
X105869199Y-54626156D01*
X106169744Y-54425338D01*
X106317102Y-54277980D01*
X107401626Y-54277980D01*
X107521514Y-54562836D01*
X107845210Y-54723699D01*
X108194069Y-54818322D01*
X108554684Y-54843067D01*
X108913198Y-54796985D01*
X109255833Y-54681846D01*
X109478486Y-54562836D01*
X109598374Y-54277980D01*
X108500000Y-53179605D01*
X107401626Y-54277980D01*
X106317102Y-54277980D01*
X106425338Y-54169744D01*
X106626156Y-53869199D01*
X106753190Y-53562511D01*
X106818154Y-53755833D01*
X106937164Y-53978486D01*
X107222020Y-54098374D01*
X108320395Y-53000000D01*
X108679605Y-53000000D01*
X109777980Y-54098374D01*
X110062836Y-53978486D01*
X110223699Y-53654790D01*
X110318322Y-53305931D01*
X110343067Y-52945316D01*
X110296985Y-52586802D01*
X110181846Y-52244167D01*
X110062836Y-52021514D01*
X109777980Y-51901626D01*
X108679605Y-53000000D01*
X108320395Y-53000000D01*
X107222020Y-51901626D01*
X106937164Y-52021514D01*
X106776301Y-52345210D01*
X106752031Y-52434690D01*
X106626156Y-52130801D01*
X106425338Y-51830256D01*
X106317102Y-51722020D01*
X107401626Y-51722020D01*
X108500000Y-52820395D01*
X109598374Y-51722020D01*
X109478486Y-51437164D01*
X109154790Y-51276301D01*
X108805931Y-51181678D01*
X108445316Y-51156933D01*
X108086802Y-51203015D01*
X107744167Y-51318154D01*
X107521514Y-51437164D01*
X107401626Y-51722020D01*
X106317102Y-51722020D01*
X106169744Y-51574662D01*
X105869199Y-51373844D01*
X105535250Y-51235518D01*
X105180732Y-51165000D01*
X104819268Y-51165000D01*
X104464750Y-51235518D01*
X104130801Y-51373844D01*
X103830256Y-51574662D01*
X103574662Y-51830256D01*
X103373844Y-52130801D01*
X103338072Y-52217162D01*
X103338072Y-51800000D01*
X103325812Y-51675518D01*
X103289502Y-51555820D01*
X103230537Y-51445506D01*
X103151185Y-51348815D01*
X103054494Y-51269463D01*
X102944180Y-51210498D01*
X102824482Y-51174188D01*
X102700000Y-51161928D01*
X100300000Y-51161928D01*
X100175518Y-51174188D01*
X100055820Y-51210498D01*
X99945506Y-51269463D01*
X99848815Y-51348815D01*
X99769463Y-51445506D01*
X99710498Y-51555820D01*
X99674188Y-51675518D01*
X99661928Y-51800000D01*
X94270394Y-51800000D01*
X94348374Y-51722020D01*
X94228486Y-51437164D01*
X93904790Y-51276301D01*
X93555931Y-51181678D01*
X93195316Y-51156933D01*
X92836802Y-51203015D01*
X92494167Y-51318154D01*
X92271514Y-51437164D01*
X92151626Y-51722020D01*
X91067102Y-51722020D01*
X90919744Y-51574662D01*
X90619199Y-51373844D01*
X90285250Y-51235518D01*
X89930732Y-51165000D01*
X89569268Y-51165000D01*
X89214750Y-51235518D01*
X88880801Y-51373844D01*
X88580256Y-51574662D01*
X88324662Y-51830256D01*
X88123844Y-52130801D01*
X88088072Y-52217162D01*
X88088072Y-51800000D01*
X88075812Y-51675518D01*
X88039502Y-51555820D01*
X87980537Y-51445506D01*
X87901185Y-51348815D01*
X87804494Y-51269463D01*
X87694180Y-51210498D01*
X87574482Y-51174188D01*
X87450000Y-51161928D01*
X85050000Y-51161928D01*
X84925518Y-51174188D01*
X84805820Y-51210498D01*
X84695506Y-51269463D01*
X84598815Y-51348815D01*
X84519463Y-51445506D01*
X84460498Y-51555820D01*
X84424188Y-51675518D01*
X84411928Y-51800000D01*
X79520394Y-51800000D01*
X79598374Y-51722020D01*
X79478486Y-51437164D01*
X79154790Y-51276301D01*
X78805931Y-51181678D01*
X78445316Y-51156933D01*
X78086802Y-51203015D01*
X77744167Y-51318154D01*
X77521514Y-51437164D01*
X77401626Y-51722020D01*
X76317102Y-51722020D01*
X76169744Y-51574662D01*
X75869199Y-51373844D01*
X75535250Y-51235518D01*
X75180732Y-51165000D01*
X74819268Y-51165000D01*
X74464750Y-51235518D01*
X74130801Y-51373844D01*
X73830256Y-51574662D01*
X73574662Y-51830256D01*
X73373844Y-52130801D01*
X73338072Y-52217162D01*
X73338072Y-51800000D01*
X73325812Y-51675518D01*
X73289502Y-51555820D01*
X73230537Y-51445506D01*
X73151185Y-51348815D01*
X73054494Y-51269463D01*
X72944180Y-51210498D01*
X72824482Y-51174188D01*
X72700000Y-51161928D01*
X70736730Y-51161928D01*
X66630000Y-47055199D01*
X66630000Y-42084801D01*
X69033255Y-44488057D01*
X68978320Y-44570273D01*
X68870147Y-44831426D01*
X68815000Y-45108665D01*
X68815000Y-45391335D01*
X68870147Y-45668574D01*
X68978320Y-45929727D01*
X69135363Y-46164759D01*
X69335241Y-46364637D01*
X69570273Y-46521680D01*
X69831426Y-46629853D01*
X70108665Y-46685000D01*
X70391335Y-46685000D01*
X70668574Y-46629853D01*
X70929727Y-46521680D01*
X71164759Y-46364637D01*
X71364637Y-46164759D01*
X71521680Y-45929727D01*
X71629853Y-45668574D01*
X71685000Y-45391335D01*
X71685000Y-45108665D01*
X71640509Y-44884999D01*
X78970198Y-44884999D01*
X79011312Y-44926113D01*
X78975000Y-45108665D01*
X78975000Y-45391335D01*
X79030147Y-45668574D01*
X79138320Y-45929727D01*
X79295363Y-46164759D01*
X79495241Y-46364637D01*
X79730273Y-46521680D01*
X79991426Y-46629853D01*
X80268665Y-46685000D01*
X80551335Y-46685000D01*
X80828574Y-46629853D01*
X81089727Y-46521680D01*
X81324759Y-46364637D01*
X81524637Y-46164759D01*
X81681680Y-45929727D01*
X81789853Y-45668574D01*
X81845000Y-45391335D01*
X81845000Y-45358665D01*
X87815000Y-45358665D01*
X87815000Y-45641335D01*
X87870147Y-45918574D01*
X87978320Y-46179727D01*
X88135363Y-46414759D01*
X88335241Y-46614637D01*
X88570273Y-46771680D01*
X88831426Y-46879853D01*
X89108665Y-46935000D01*
X89391335Y-46935000D01*
X89668574Y-46879853D01*
X89929727Y-46771680D01*
X90164759Y-46614637D01*
X90286694Y-46492702D01*
X93436903Y-46492702D01*
X93508486Y-46736671D01*
X93763996Y-46857571D01*
X94038184Y-46926300D01*
X94320512Y-46940217D01*
X94600130Y-46898787D01*
X94866292Y-46803603D01*
X94991514Y-46736671D01*
X95063097Y-46492702D01*
X94250000Y-45679605D01*
X93436903Y-46492702D01*
X90286694Y-46492702D01*
X90364637Y-46414759D01*
X90521680Y-46179727D01*
X90629853Y-45918574D01*
X90685000Y-45641335D01*
X90685000Y-45570512D01*
X92809783Y-45570512D01*
X92851213Y-45850130D01*
X92946397Y-46116292D01*
X93013329Y-46241514D01*
X93257298Y-46313097D01*
X94070395Y-45500000D01*
X94429605Y-45500000D01*
X95242702Y-46313097D01*
X95486671Y-46241514D01*
X95607571Y-45986004D01*
X95676300Y-45711816D01*
X95690217Y-45429488D01*
X95648787Y-45149870D01*
X95553603Y-44883708D01*
X95486671Y-44758486D01*
X95242702Y-44686903D01*
X94429605Y-45500000D01*
X94070395Y-45500000D01*
X93257298Y-44686903D01*
X93013329Y-44758486D01*
X92892429Y-45013996D01*
X92823700Y-45288184D01*
X92809783Y-45570512D01*
X90685000Y-45570512D01*
X90685000Y-45358665D01*
X90629853Y-45081426D01*
X90521680Y-44820273D01*
X90364637Y-44585241D01*
X90286694Y-44507298D01*
X93436903Y-44507298D01*
X94250000Y-45320395D01*
X95063097Y-44507298D01*
X94991514Y-44263329D01*
X94736004Y-44142429D01*
X94461816Y-44073700D01*
X94179488Y-44059783D01*
X93899870Y-44101213D01*
X93633708Y-44196397D01*
X93508486Y-44263329D01*
X93436903Y-44507298D01*
X90286694Y-44507298D01*
X90164759Y-44385363D01*
X89929727Y-44228320D01*
X89668574Y-44120147D01*
X89391335Y-44065000D01*
X89108665Y-44065000D01*
X88831426Y-44120147D01*
X88570273Y-44228320D01*
X88335241Y-44385363D01*
X88135363Y-44585241D01*
X87978320Y-44820273D01*
X87870147Y-45081426D01*
X87815000Y-45358665D01*
X81845000Y-45358665D01*
X81845000Y-45108665D01*
X81789853Y-44831426D01*
X81681680Y-44570273D01*
X81524637Y-44335241D01*
X81324759Y-44135363D01*
X81089727Y-43978320D01*
X80828574Y-43870147D01*
X80551335Y-43815000D01*
X80268665Y-43815000D01*
X80086113Y-43851312D01*
X79848803Y-43614001D01*
X79825000Y-43584998D01*
X79709275Y-43490025D01*
X79577246Y-43419453D01*
X79433985Y-43375996D01*
X79322332Y-43364999D01*
X79322321Y-43364999D01*
X79284999Y-43361323D01*
X79247677Y-43364999D01*
X70059801Y-43364999D01*
X68429801Y-41735000D01*
X68537002Y-41735000D01*
X68537002Y-41570156D01*
X68766890Y-41691476D01*
X68914099Y-41646825D01*
X69176920Y-41521641D01*
X69410269Y-41347588D01*
X69605178Y-41131355D01*
X69674805Y-41014466D01*
X69796525Y-41196632D01*
X70003368Y-41403475D01*
X70246589Y-41565990D01*
X70516842Y-41677932D01*
X70803740Y-41735000D01*
X71096260Y-41735000D01*
X71383158Y-41677932D01*
X71653411Y-41565990D01*
X71896632Y-41403475D01*
X72103475Y-41196632D01*
X72220000Y-41022240D01*
X72336525Y-41196632D01*
X72543368Y-41403475D01*
X72786589Y-41565990D01*
X73056842Y-41677932D01*
X73343740Y-41735000D01*
X73636260Y-41735000D01*
X73923158Y-41677932D01*
X74193411Y-41565990D01*
X74436632Y-41403475D01*
X74643475Y-41196632D01*
X74760000Y-41022240D01*
X74876525Y-41196632D01*
X75083368Y-41403475D01*
X75326589Y-41565990D01*
X75596842Y-41677932D01*
X75883740Y-41735000D01*
X76176260Y-41735000D01*
X76463158Y-41677932D01*
X76733411Y-41565990D01*
X76976632Y-41403475D01*
X77183475Y-41196632D01*
X77300000Y-41022240D01*
X77416525Y-41196632D01*
X77623368Y-41403475D01*
X77866589Y-41565990D01*
X78136842Y-41677932D01*
X78423740Y-41735000D01*
X78716260Y-41735000D01*
X79003158Y-41677932D01*
X79273411Y-41565990D01*
X79516632Y-41403475D01*
X79723475Y-41196632D01*
X79840000Y-41022240D01*
X79956525Y-41196632D01*
X80163368Y-41403475D01*
X80406589Y-41565990D01*
X80676842Y-41677932D01*
X80963740Y-41735000D01*
X81256260Y-41735000D01*
X81543158Y-41677932D01*
X81813411Y-41565990D01*
X82056632Y-41403475D01*
X82263475Y-41196632D01*
X82380000Y-41022240D01*
X82496525Y-41196632D01*
X82703368Y-41403475D01*
X82946589Y-41565990D01*
X83216842Y-41677932D01*
X83503740Y-41735000D01*
X83796260Y-41735000D01*
X84083158Y-41677932D01*
X84353411Y-41565990D01*
X84596632Y-41403475D01*
X84803475Y-41196632D01*
X84920000Y-41022240D01*
X85036525Y-41196632D01*
X85243368Y-41403475D01*
X85486589Y-41565990D01*
X85756842Y-41677932D01*
X86043740Y-41735000D01*
X86336260Y-41735000D01*
X86623158Y-41677932D01*
X86893411Y-41565990D01*
X87136632Y-41403475D01*
X87343475Y-41196632D01*
X87465195Y-41014466D01*
X87534822Y-41131355D01*
X87729731Y-41347588D01*
X87963080Y-41521641D01*
X88225901Y-41646825D01*
X88373110Y-41691476D01*
X88603000Y-41570155D01*
X88603000Y-40377000D01*
X88583000Y-40377000D01*
X88583000Y-40123000D01*
X88603000Y-40123000D01*
X88603000Y-40103000D01*
X88857000Y-40103000D01*
X88857000Y-40123000D01*
X88877000Y-40123000D01*
X88877000Y-40377000D01*
X88857000Y-40377000D01*
X88857000Y-41570155D01*
X89086890Y-41691476D01*
X89234099Y-41646825D01*
X89496920Y-41521641D01*
X89730269Y-41347588D01*
X89925178Y-41131355D01*
X89994805Y-41014466D01*
X90116525Y-41196632D01*
X90323368Y-41403475D01*
X90566589Y-41565990D01*
X90836842Y-41677932D01*
X91123740Y-41735000D01*
X91416260Y-41735000D01*
X91703158Y-41677932D01*
X91973411Y-41565990D01*
X92216632Y-41403475D01*
X92423475Y-41196632D01*
X92540000Y-41022240D01*
X92656525Y-41196632D01*
X92863368Y-41403475D01*
X93106589Y-41565990D01*
X93376842Y-41677932D01*
X93663740Y-41735000D01*
X93956260Y-41735000D01*
X94243158Y-41677932D01*
X94513411Y-41565990D01*
X94756632Y-41403475D01*
X94963475Y-41196632D01*
X95080000Y-41022240D01*
X95196525Y-41196632D01*
X95403368Y-41403475D01*
X95646589Y-41565990D01*
X95916842Y-41677932D01*
X96203740Y-41735000D01*
X96496260Y-41735000D01*
X96783158Y-41677932D01*
X97053411Y-41565990D01*
X97296632Y-41403475D01*
X97503475Y-41196632D01*
X97620000Y-41022240D01*
X97736525Y-41196632D01*
X97943368Y-41403475D01*
X98186589Y-41565990D01*
X98456842Y-41677932D01*
X98743740Y-41735000D01*
X99036260Y-41735000D01*
X99323158Y-41677932D01*
X99593411Y-41565990D01*
X99836632Y-41403475D01*
X100043475Y-41196632D01*
X100160000Y-41022240D01*
X100276525Y-41196632D01*
X100483368Y-41403475D01*
X100726589Y-41565990D01*
X100996842Y-41677932D01*
X101283740Y-41735000D01*
X101576260Y-41735000D01*
X101863158Y-41677932D01*
X102133411Y-41565990D01*
X102376632Y-41403475D01*
X102583475Y-41196632D01*
X102700000Y-41022240D01*
X102816525Y-41196632D01*
X103023368Y-41403475D01*
X103266589Y-41565990D01*
X103536842Y-41677932D01*
X103823740Y-41735000D01*
X104116260Y-41735000D01*
X104403158Y-41677932D01*
X104673411Y-41565990D01*
X104916632Y-41403475D01*
X105123475Y-41196632D01*
X105245195Y-41014466D01*
X105314822Y-41131355D01*
X105509731Y-41347588D01*
X105743080Y-41521641D01*
X106005901Y-41646825D01*
X106153110Y-41691476D01*
X106383000Y-41570155D01*
X106383000Y-40377000D01*
X106637000Y-40377000D01*
X106637000Y-41570155D01*
X106866890Y-41691476D01*
X107014099Y-41646825D01*
X107276920Y-41521641D01*
X107510269Y-41347588D01*
X107705178Y-41131355D01*
X107854157Y-40881252D01*
X107951481Y-40606891D01*
X107830814Y-40377000D01*
X106637000Y-40377000D01*
X106383000Y-40377000D01*
X106363000Y-40377000D01*
X106363000Y-40123000D01*
X106383000Y-40123000D01*
X106383000Y-40103000D01*
X106637000Y-40103000D01*
X106637000Y-40123000D01*
X107830814Y-40123000D01*
X107951481Y-39893109D01*
X107854157Y-39618748D01*
X107705178Y-39368645D01*
X107510269Y-39152412D01*
X107280594Y-38981100D01*
X107456632Y-38863475D01*
X107663475Y-38656632D01*
X107825990Y-38413411D01*
X107937932Y-38143158D01*
X107995000Y-37856260D01*
X107995000Y-37563740D01*
X107937932Y-37276842D01*
X107825990Y-37006589D01*
X107663475Y-36763368D01*
X107456632Y-36556525D01*
X107213411Y-36394010D01*
X106943158Y-36282068D01*
X106656260Y-36225000D01*
X106363740Y-36225000D01*
X106076842Y-36282068D01*
X105806589Y-36394010D01*
X105563368Y-36556525D01*
X105356525Y-36763368D01*
X105240000Y-36937760D01*
X105123475Y-36763368D01*
X104916632Y-36556525D01*
X104673411Y-36394010D01*
X104403158Y-36282068D01*
X104116260Y-36225000D01*
X103823740Y-36225000D01*
X103536842Y-36282068D01*
X103266589Y-36394010D01*
X103023368Y-36556525D01*
X102816525Y-36763368D01*
X102700000Y-36937760D01*
X102583475Y-36763368D01*
X102376632Y-36556525D01*
X102133411Y-36394010D01*
X101863158Y-36282068D01*
X101576260Y-36225000D01*
X101283740Y-36225000D01*
X100996842Y-36282068D01*
X100726589Y-36394010D01*
X100483368Y-36556525D01*
X100276525Y-36763368D01*
X100154805Y-36945534D01*
X100085178Y-36828645D01*
X99890269Y-36612412D01*
X99656920Y-36438359D01*
X99394099Y-36313175D01*
X99246890Y-36268524D01*
X99017000Y-36389845D01*
X99017000Y-37583000D01*
X99037000Y-37583000D01*
X99037000Y-37837000D01*
X99017000Y-37837000D01*
X99017000Y-37857000D01*
X98763000Y-37857000D01*
X98763000Y-37837000D01*
X98743000Y-37837000D01*
X98743000Y-37583000D01*
X98763000Y-37583000D01*
X98763000Y-36389845D01*
X98533110Y-36268524D01*
X98385901Y-36313175D01*
X98123080Y-36438359D01*
X97889731Y-36612412D01*
X97694822Y-36828645D01*
X97625195Y-36945534D01*
X97503475Y-36763368D01*
X97296632Y-36556525D01*
X97053411Y-36394010D01*
X96783158Y-36282068D01*
X96496260Y-36225000D01*
X96203740Y-36225000D01*
X95916842Y-36282068D01*
X95646589Y-36394010D01*
X95403368Y-36556525D01*
X95196525Y-36763368D01*
X95074805Y-36945534D01*
X95005178Y-36828645D01*
X94810269Y-36612412D01*
X94576920Y-36438359D01*
X94314099Y-36313175D01*
X94166890Y-36268524D01*
X93937000Y-36389845D01*
X93937000Y-37583000D01*
X93957000Y-37583000D01*
X93957000Y-37837000D01*
X93937000Y-37837000D01*
X93937000Y-37857000D01*
X93683000Y-37857000D01*
X93683000Y-37837000D01*
X93663000Y-37837000D01*
X93663000Y-37583000D01*
X93683000Y-37583000D01*
X93683000Y-36389845D01*
X93453110Y-36268524D01*
X93305901Y-36313175D01*
X93043080Y-36438359D01*
X92809731Y-36612412D01*
X92614822Y-36828645D01*
X92545195Y-36945534D01*
X92423475Y-36763368D01*
X92216632Y-36556525D01*
X91973411Y-36394010D01*
X91703158Y-36282068D01*
X91416260Y-36225000D01*
X91123740Y-36225000D01*
X90836842Y-36282068D01*
X90566589Y-36394010D01*
X90323368Y-36556525D01*
X90116525Y-36763368D01*
X90000000Y-36937760D01*
X89883475Y-36763368D01*
X89676632Y-36556525D01*
X89433411Y-36394010D01*
X89163158Y-36282068D01*
X88876260Y-36225000D01*
X88583740Y-36225000D01*
X88296842Y-36282068D01*
X88026589Y-36394010D01*
X87783368Y-36556525D01*
X87576525Y-36763368D01*
X87460000Y-36937760D01*
X87343475Y-36763368D01*
X87136632Y-36556525D01*
X86893411Y-36394010D01*
X86623158Y-36282068D01*
X86336260Y-36225000D01*
X86043740Y-36225000D01*
X85756842Y-36282068D01*
X85486589Y-36394010D01*
X85243368Y-36556525D01*
X85036525Y-36763368D01*
X84920000Y-36937760D01*
X84803475Y-36763368D01*
X84596632Y-36556525D01*
X84353411Y-36394010D01*
X84083158Y-36282068D01*
X83796260Y-36225000D01*
X83503740Y-36225000D01*
X83216842Y-36282068D01*
X82946589Y-36394010D01*
X82703368Y-36556525D01*
X82496525Y-36763368D01*
X82374805Y-36945534D01*
X82305178Y-36828645D01*
X82110269Y-36612412D01*
X81876920Y-36438359D01*
X81614099Y-36313175D01*
X81466890Y-36268524D01*
X81237000Y-36389845D01*
X81237000Y-37583000D01*
X81257000Y-37583000D01*
X81257000Y-37837000D01*
X81237000Y-37837000D01*
X81237000Y-37857000D01*
X80983000Y-37857000D01*
X80983000Y-37837000D01*
X80963000Y-37837000D01*
X80963000Y-37583000D01*
X80983000Y-37583000D01*
X80983000Y-36389845D01*
X80753110Y-36268524D01*
X80605901Y-36313175D01*
X80343080Y-36438359D01*
X80109731Y-36612412D01*
X79914822Y-36828645D01*
X79845195Y-36945534D01*
X79723475Y-36763368D01*
X79516632Y-36556525D01*
X79273411Y-36394010D01*
X79003158Y-36282068D01*
X78716260Y-36225000D01*
X78423740Y-36225000D01*
X78136842Y-36282068D01*
X77866589Y-36394010D01*
X77623368Y-36556525D01*
X77416525Y-36763368D01*
X77300000Y-36937760D01*
X77183475Y-36763368D01*
X76976632Y-36556525D01*
X76733411Y-36394010D01*
X76463158Y-36282068D01*
X76176260Y-36225000D01*
X75883740Y-36225000D01*
X75596842Y-36282068D01*
X75326589Y-36394010D01*
X75083368Y-36556525D01*
X74876525Y-36763368D01*
X74754805Y-36945534D01*
X74685178Y-36828645D01*
X74490269Y-36612412D01*
X74256920Y-36438359D01*
X73994099Y-36313175D01*
X73846890Y-36268524D01*
X73617000Y-36389845D01*
X73617000Y-37583000D01*
X73637000Y-37583000D01*
X73637000Y-37837000D01*
X73617000Y-37837000D01*
X73617000Y-37857000D01*
X73363000Y-37857000D01*
X73363000Y-37837000D01*
X73343000Y-37837000D01*
X73343000Y-37583000D01*
X73363000Y-37583000D01*
X73363000Y-36389845D01*
X73133110Y-36268524D01*
X72985901Y-36313175D01*
X72723080Y-36438359D01*
X72489731Y-36612412D01*
X72294822Y-36828645D01*
X72225195Y-36945534D01*
X72103475Y-36763368D01*
X71896632Y-36556525D01*
X71653411Y-36394010D01*
X71383158Y-36282068D01*
X71096260Y-36225000D01*
X70803740Y-36225000D01*
X70516842Y-36282068D01*
X70246589Y-36394010D01*
X70003368Y-36556525D01*
X69796525Y-36763368D01*
X69680000Y-36937760D01*
X69563475Y-36763368D01*
X69356632Y-36556525D01*
X69113411Y-36394010D01*
X68843158Y-36282068D01*
X68556260Y-36225000D01*
X68263740Y-36225000D01*
X67976842Y-36282068D01*
X67706589Y-36394010D01*
X67463368Y-36556525D01*
X67256525Y-36763368D01*
X67140000Y-36937760D01*
X67023475Y-36763368D01*
X66816632Y-36556525D01*
X66573411Y-36394010D01*
X66303158Y-36282068D01*
X66016260Y-36225000D01*
X65723740Y-36225000D01*
X65436842Y-36282068D01*
X65166589Y-36394010D01*
X64923368Y-36556525D01*
X64716525Y-36763368D01*
X64594805Y-36945534D01*
X64525178Y-36828645D01*
X64330269Y-36612412D01*
X64096920Y-36438359D01*
X63834099Y-36313175D01*
X63686890Y-36268524D01*
X63457000Y-36389845D01*
X63457000Y-37583000D01*
X63477000Y-37583000D01*
X63477000Y-37837000D01*
X63457000Y-37837000D01*
X63457000Y-37857000D01*
X63203000Y-37857000D01*
X63203000Y-37837000D01*
X63183000Y-37837000D01*
X63183000Y-37583000D01*
X63203000Y-37583000D01*
X63203000Y-36389845D01*
X62973110Y-36268524D01*
X62825901Y-36313175D01*
X62563080Y-36438359D01*
X62329731Y-36612412D01*
X62134822Y-36828645D01*
X62065195Y-36945534D01*
X61943475Y-36763368D01*
X61736632Y-36556525D01*
X61493411Y-36394010D01*
X61223158Y-36282068D01*
X60936260Y-36225000D01*
X60643740Y-36225000D01*
X60356842Y-36282068D01*
X60086589Y-36394010D01*
X59843368Y-36556525D01*
X59636525Y-36763368D01*
X59520000Y-36937760D01*
X59403475Y-36763368D01*
X59196632Y-36556525D01*
X58953411Y-36394010D01*
X58683158Y-36282068D01*
X58396260Y-36225000D01*
X58103740Y-36225000D01*
X57816842Y-36282068D01*
X57546589Y-36394010D01*
X57303368Y-36556525D01*
X57096525Y-36763368D01*
X56934010Y-37006589D01*
X56822068Y-37276842D01*
X56765000Y-37563740D01*
X56765000Y-37856260D01*
X56822068Y-38143158D01*
X56934010Y-38413411D01*
X57096525Y-38656632D01*
X57228380Y-38788487D01*
X57155820Y-38810498D01*
X57045506Y-38869463D01*
X56948815Y-38948815D01*
X56869463Y-39045506D01*
X56835000Y-39109981D01*
X56835000Y-38671531D01*
X56706838Y-38027216D01*
X56455439Y-37420285D01*
X56090464Y-36874061D01*
X55625939Y-36409536D01*
X55289897Y-36185000D01*
X109710103Y-36185000D01*
X109374061Y-36409536D01*
%TA.AperFunction,Conductor*%
D19*
G36*
X109374061Y-36409536D02*
G01*
X108909536Y-36874061D01*
X108544561Y-37420285D01*
X108293162Y-38027216D01*
X108165000Y-38671531D01*
X108165000Y-39328469D01*
X108293162Y-39972784D01*
X108544561Y-40579715D01*
X108909536Y-41125939D01*
X109374061Y-41590464D01*
X109920285Y-41955439D01*
X110527216Y-42206838D01*
X111171531Y-42335000D01*
X111828469Y-42335000D01*
X112472784Y-42206838D01*
X113079715Y-41955439D01*
X113625939Y-41590464D01*
X114090464Y-41125939D01*
X114315000Y-40789897D01*
X114315001Y-60210104D01*
X114090464Y-59874061D01*
X113625939Y-59409536D01*
X113079715Y-59044561D01*
X112472784Y-58793162D01*
X111828469Y-58665000D01*
X111171531Y-58665000D01*
X110527216Y-58793162D01*
X109920285Y-59044561D01*
X109374061Y-59409536D01*
X108909536Y-59874061D01*
X108544561Y-60420285D01*
X108293162Y-61027216D01*
X108165000Y-61671531D01*
X108165000Y-62328469D01*
X108293162Y-62972784D01*
X108544561Y-63579715D01*
X108909536Y-64125939D01*
X109374061Y-64590464D01*
X109710103Y-64815000D01*
X55289897Y-64815000D01*
X55625939Y-64590464D01*
X56090464Y-64125939D01*
X56455439Y-63579715D01*
X56706838Y-62972784D01*
X56835000Y-62328469D01*
X56835000Y-61671531D01*
X56706838Y-61027216D01*
X56455439Y-60420285D01*
X56090464Y-59874061D01*
X55625939Y-59409536D01*
X55079715Y-59044561D01*
X54472784Y-58793162D01*
X53828469Y-58665000D01*
X53171531Y-58665000D01*
X52527216Y-58793162D01*
X51920285Y-59044561D01*
X51374061Y-59409536D01*
X50909536Y-59874061D01*
X50685000Y-60210103D01*
X50685000Y-51800000D01*
X54411928Y-51800000D01*
X54411928Y-54200000D01*
X54424188Y-54324482D01*
X54460498Y-54444180D01*
X54519463Y-54554494D01*
X54598815Y-54651185D01*
X54695506Y-54730537D01*
X54805820Y-54789502D01*
X54925518Y-54825812D01*
X55050000Y-54838072D01*
X57450000Y-54838072D01*
X57574482Y-54825812D01*
X57694180Y-54789502D01*
X57804494Y-54730537D01*
X57901185Y-54651185D01*
X57980537Y-54554494D01*
X58039502Y-54444180D01*
X58075812Y-54324482D01*
X58088072Y-54200000D01*
X58088072Y-53782838D01*
X58123844Y-53869199D01*
X58324662Y-54169744D01*
X58580256Y-54425338D01*
X58880801Y-54626156D01*
X59214750Y-54764482D01*
X59569268Y-54835000D01*
X59930732Y-54835000D01*
X60285250Y-54764482D01*
X60619199Y-54626156D01*
X60919744Y-54425338D01*
X61067102Y-54277980D01*
X62151626Y-54277980D01*
X62271514Y-54562836D01*
X62595210Y-54723699D01*
X62944069Y-54818322D01*
X63304684Y-54843067D01*
X63663198Y-54796985D01*
X64005833Y-54681846D01*
X64228486Y-54562836D01*
X64348374Y-54277980D01*
X63250000Y-53179605D01*
X62151626Y-54277980D01*
X61067102Y-54277980D01*
X61175338Y-54169744D01*
X61376156Y-53869199D01*
X61503190Y-53562511D01*
X61568154Y-53755833D01*
X61687164Y-53978486D01*
X61972020Y-54098374D01*
X63070395Y-53000000D01*
X63429605Y-53000000D01*
X64527980Y-54098374D01*
X64812836Y-53978486D01*
X64973699Y-53654790D01*
X65068322Y-53305931D01*
X65093067Y-52945316D01*
X65046985Y-52586802D01*
X64931846Y-52244167D01*
X64812836Y-52021514D01*
X64527980Y-51901626D01*
X63429605Y-53000000D01*
X63070395Y-53000000D01*
X61972020Y-51901626D01*
X61687164Y-52021514D01*
X61526301Y-52345210D01*
X61502031Y-52434690D01*
X61376156Y-52130801D01*
X61175338Y-51830256D01*
X61067102Y-51722020D01*
X62151626Y-51722020D01*
X63250000Y-52820395D01*
X64348374Y-51722020D01*
X64228486Y-51437164D01*
X63904790Y-51276301D01*
X63555931Y-51181678D01*
X63195316Y-51156933D01*
X62836802Y-51203015D01*
X62494167Y-51318154D01*
X62271514Y-51437164D01*
X62151626Y-51722020D01*
X61067102Y-51722020D01*
X60919744Y-51574662D01*
X60619199Y-51373844D01*
X60285250Y-51235518D01*
X59930732Y-51165000D01*
X59569268Y-51165000D01*
X59214750Y-51235518D01*
X58880801Y-51373844D01*
X58580256Y-51574662D01*
X58324662Y-51830256D01*
X58123844Y-52130801D01*
X58088072Y-52217162D01*
X58088072Y-51800000D01*
X58075812Y-51675518D01*
X58039502Y-51555820D01*
X57980537Y-51445506D01*
X57901185Y-51348815D01*
X57804494Y-51269463D01*
X57694180Y-51210498D01*
X57574482Y-51174188D01*
X57450000Y-51161928D01*
X55050000Y-51161928D01*
X54925518Y-51174188D01*
X54805820Y-51210498D01*
X54695506Y-51269463D01*
X54598815Y-51348815D01*
X54519463Y-51445506D01*
X54460498Y-51555820D01*
X54424188Y-51675518D01*
X54411928Y-51800000D01*
X50685000Y-51800000D01*
X50685000Y-40789897D01*
X50909536Y-41125939D01*
X51374061Y-41590464D01*
X51920285Y-41955439D01*
X52527216Y-42206838D01*
X53171531Y-42335000D01*
X53828469Y-42335000D01*
X54472784Y-42206838D01*
X55079715Y-41955439D01*
X55625939Y-41590464D01*
X56090464Y-41125939D01*
X56455439Y-40579715D01*
X56706838Y-39972784D01*
X56761928Y-39695827D01*
X56761928Y-41100000D01*
X56774188Y-41224482D01*
X56810498Y-41344180D01*
X56869463Y-41454494D01*
X56948815Y-41551185D01*
X57045506Y-41630537D01*
X57155820Y-41689502D01*
X57275518Y-41725812D01*
X57400000Y-41738072D01*
X59100000Y-41738072D01*
X59224482Y-41725812D01*
X59344180Y-41689502D01*
X59454494Y-41630537D01*
X59551185Y-41551185D01*
X59630537Y-41454494D01*
X59689502Y-41344180D01*
X59711513Y-41271620D01*
X59843368Y-41403475D01*
X60086589Y-41565990D01*
X60356842Y-41677932D01*
X60643740Y-41735000D01*
X60936260Y-41735000D01*
X61223158Y-41677932D01*
X61493411Y-41565990D01*
X61736632Y-41403475D01*
X61943475Y-41196632D01*
X62060000Y-41022240D01*
X62176525Y-41196632D01*
X62383368Y-41403475D01*
X62626589Y-41565990D01*
X62896842Y-41677932D01*
X63183740Y-41735000D01*
X63476260Y-41735000D01*
X63763158Y-41677932D01*
X64033411Y-41565990D01*
X64276632Y-41403475D01*
X64483475Y-41196632D01*
X64600000Y-41022240D01*
X64716525Y-41196632D01*
X64923368Y-41403475D01*
X65110000Y-41528179D01*
X65110001Y-47332668D01*
X65106324Y-47370000D01*
X65120998Y-47518985D01*
X65164454Y-47662246D01*
X65235026Y-47794276D01*
X65306201Y-47881002D01*
X65330000Y-47910001D01*
X65358998Y-47933799D01*
X69661928Y-52236730D01*
X69661928Y-54200000D01*
X69674188Y-54324482D01*
X69710498Y-54444180D01*
X69769463Y-54554494D01*
X69848815Y-54651185D01*
X69945506Y-54730537D01*
X70055820Y-54789502D01*
X70175518Y-54825812D01*
X70300000Y-54838072D01*
X72700000Y-54838072D01*
X72824482Y-54825812D01*
X72944180Y-54789502D01*
X73054494Y-54730537D01*
X73151185Y-54651185D01*
X73230537Y-54554494D01*
X73289502Y-54444180D01*
X73325812Y-54324482D01*
X73338072Y-54200000D01*
X73338072Y-53782838D01*
X73373844Y-53869199D01*
X73574662Y-54169744D01*
X73830256Y-54425338D01*
X74130801Y-54626156D01*
X74464750Y-54764482D01*
X74819268Y-54835000D01*
X75180732Y-54835000D01*
X75535250Y-54764482D01*
X75869199Y-54626156D01*
X76169744Y-54425338D01*
X76317102Y-54277980D01*
X77401626Y-54277980D01*
X77521514Y-54562836D01*
X77845210Y-54723699D01*
X78194069Y-54818322D01*
X78554684Y-54843067D01*
X78913198Y-54796985D01*
X79255833Y-54681846D01*
X79478486Y-54562836D01*
X79598374Y-54277980D01*
X78500000Y-53179605D01*
X77401626Y-54277980D01*
X76317102Y-54277980D01*
X76425338Y-54169744D01*
X76626156Y-53869199D01*
X76753190Y-53562511D01*
X76818154Y-53755833D01*
X76937164Y-53978486D01*
X77222020Y-54098374D01*
X78320395Y-53000000D01*
X78679605Y-53000000D01*
X79777980Y-54098374D01*
X80062836Y-53978486D01*
X80223699Y-53654790D01*
X80318322Y-53305931D01*
X80343067Y-52945316D01*
X80296985Y-52586802D01*
X80181846Y-52244167D01*
X80062836Y-52021514D01*
X79777980Y-51901626D01*
X78679605Y-53000000D01*
X78320395Y-53000000D01*
X77222020Y-51901626D01*
X76937164Y-52021514D01*
X76776301Y-52345210D01*
X76752031Y-52434690D01*
X76626156Y-52130801D01*
X76425338Y-51830256D01*
X76317102Y-51722020D01*
X77401626Y-51722020D01*
X78500000Y-52820395D01*
X79520394Y-51800000D01*
X84411928Y-51800000D01*
X84411928Y-54200000D01*
X84424188Y-54324482D01*
X84460498Y-54444180D01*
X84519463Y-54554494D01*
X84598815Y-54651185D01*
X84695506Y-54730537D01*
X84805820Y-54789502D01*
X84925518Y-54825812D01*
X85050000Y-54838072D01*
X87450000Y-54838072D01*
X87574482Y-54825812D01*
X87694180Y-54789502D01*
X87804494Y-54730537D01*
X87901185Y-54651185D01*
X87980537Y-54554494D01*
X88039502Y-54444180D01*
X88075812Y-54324482D01*
X88088072Y-54200000D01*
X88088072Y-53782838D01*
X88123844Y-53869199D01*
X88324662Y-54169744D01*
X88580256Y-54425338D01*
X88880801Y-54626156D01*
X89214750Y-54764482D01*
X89569268Y-54835000D01*
X89930732Y-54835000D01*
X90285250Y-54764482D01*
X90619199Y-54626156D01*
X90919744Y-54425338D01*
X91067102Y-54277980D01*
X92151626Y-54277980D01*
X92271514Y-54562836D01*
X92595210Y-54723699D01*
X92944069Y-54818322D01*
X93304684Y-54843067D01*
X93663198Y-54796985D01*
X94005833Y-54681846D01*
X94228486Y-54562836D01*
X94348374Y-54277980D01*
X93250000Y-53179605D01*
X92151626Y-54277980D01*
X91067102Y-54277980D01*
X91175338Y-54169744D01*
X91376156Y-53869199D01*
X91503190Y-53562511D01*
X91568154Y-53755833D01*
X91687164Y-53978486D01*
X91972020Y-54098374D01*
X93070395Y-53000000D01*
X93429605Y-53000000D01*
X94527980Y-54098374D01*
X94812836Y-53978486D01*
X94973699Y-53654790D01*
X95068322Y-53305931D01*
X95093067Y-52945316D01*
X95046985Y-52586802D01*
X94931846Y-52244167D01*
X94812836Y-52021514D01*
X94527980Y-51901626D01*
X93429605Y-53000000D01*
X93070395Y-53000000D01*
X91972020Y-51901626D01*
X91687164Y-52021514D01*
X91526301Y-52345210D01*
X91502031Y-52434690D01*
X91376156Y-52130801D01*
X91175338Y-51830256D01*
X91067102Y-51722020D01*
X92151626Y-51722020D01*
X93250000Y-52820395D01*
X94270394Y-51800000D01*
X99661928Y-51800000D01*
X99661928Y-54200000D01*
X99674188Y-54324482D01*
X99710498Y-54444180D01*
X99769463Y-54554494D01*
X99848815Y-54651185D01*
X99945506Y-54730537D01*
X100055820Y-54789502D01*
X100175518Y-54825812D01*
X100300000Y-54838072D01*
X102700000Y-54838072D01*
X102824482Y-54825812D01*
X102944180Y-54789502D01*
X103054494Y-54730537D01*
X103151185Y-54651185D01*
X103230537Y-54554494D01*
X103289502Y-54444180D01*
X103325812Y-54324482D01*
X103338072Y-54200000D01*
X103338072Y-53782838D01*
X103373844Y-53869199D01*
X103574662Y-54169744D01*
X103830256Y-54425338D01*
X104130801Y-54626156D01*
X104464750Y-54764482D01*
X104819268Y-54835000D01*
X105180732Y-54835000D01*
X105535250Y-54764482D01*
X105869199Y-54626156D01*
X106169744Y-54425338D01*
X106317102Y-54277980D01*
X107401626Y-54277980D01*
X107521514Y-54562836D01*
X107845210Y-54723699D01*
X108194069Y-54818322D01*
X108554684Y-54843067D01*
X108913198Y-54796985D01*
X109255833Y-54681846D01*
X109478486Y-54562836D01*
X109598374Y-54277980D01*
X108500000Y-53179605D01*
X107401626Y-54277980D01*
X106317102Y-54277980D01*
X106425338Y-54169744D01*
X106626156Y-53869199D01*
X106753190Y-53562511D01*
X106818154Y-53755833D01*
X106937164Y-53978486D01*
X107222020Y-54098374D01*
X108320395Y-53000000D01*
X108679605Y-53000000D01*
X109777980Y-54098374D01*
X110062836Y-53978486D01*
X110223699Y-53654790D01*
X110318322Y-53305931D01*
X110343067Y-52945316D01*
X110296985Y-52586802D01*
X110181846Y-52244167D01*
X110062836Y-52021514D01*
X109777980Y-51901626D01*
X108679605Y-53000000D01*
X108320395Y-53000000D01*
X107222020Y-51901626D01*
X106937164Y-52021514D01*
X106776301Y-52345210D01*
X106752031Y-52434690D01*
X106626156Y-52130801D01*
X106425338Y-51830256D01*
X106317102Y-51722020D01*
X107401626Y-51722020D01*
X108500000Y-52820395D01*
X109598374Y-51722020D01*
X109478486Y-51437164D01*
X109154790Y-51276301D01*
X108805931Y-51181678D01*
X108445316Y-51156933D01*
X108086802Y-51203015D01*
X107744167Y-51318154D01*
X107521514Y-51437164D01*
X107401626Y-51722020D01*
X106317102Y-51722020D01*
X106169744Y-51574662D01*
X105869199Y-51373844D01*
X105535250Y-51235518D01*
X105180732Y-51165000D01*
X104819268Y-51165000D01*
X104464750Y-51235518D01*
X104130801Y-51373844D01*
X103830256Y-51574662D01*
X103574662Y-51830256D01*
X103373844Y-52130801D01*
X103338072Y-52217162D01*
X103338072Y-51800000D01*
X103325812Y-51675518D01*
X103289502Y-51555820D01*
X103230537Y-51445506D01*
X103151185Y-51348815D01*
X103054494Y-51269463D01*
X102944180Y-51210498D01*
X102824482Y-51174188D01*
X102700000Y-51161928D01*
X100300000Y-51161928D01*
X100175518Y-51174188D01*
X100055820Y-51210498D01*
X99945506Y-51269463D01*
X99848815Y-51348815D01*
X99769463Y-51445506D01*
X99710498Y-51555820D01*
X99674188Y-51675518D01*
X99661928Y-51800000D01*
X94270394Y-51800000D01*
X94348374Y-51722020D01*
X94228486Y-51437164D01*
X93904790Y-51276301D01*
X93555931Y-51181678D01*
X93195316Y-51156933D01*
X92836802Y-51203015D01*
X92494167Y-51318154D01*
X92271514Y-51437164D01*
X92151626Y-51722020D01*
X91067102Y-51722020D01*
X90919744Y-51574662D01*
X90619199Y-51373844D01*
X90285250Y-51235518D01*
X89930732Y-51165000D01*
X89569268Y-51165000D01*
X89214750Y-51235518D01*
X88880801Y-51373844D01*
X88580256Y-51574662D01*
X88324662Y-51830256D01*
X88123844Y-52130801D01*
X88088072Y-52217162D01*
X88088072Y-51800000D01*
X88075812Y-51675518D01*
X88039502Y-51555820D01*
X87980537Y-51445506D01*
X87901185Y-51348815D01*
X87804494Y-51269463D01*
X87694180Y-51210498D01*
X87574482Y-51174188D01*
X87450000Y-51161928D01*
X85050000Y-51161928D01*
X84925518Y-51174188D01*
X84805820Y-51210498D01*
X84695506Y-51269463D01*
X84598815Y-51348815D01*
X84519463Y-51445506D01*
X84460498Y-51555820D01*
X84424188Y-51675518D01*
X84411928Y-51800000D01*
X79520394Y-51800000D01*
X79598374Y-51722020D01*
X79478486Y-51437164D01*
X79154790Y-51276301D01*
X78805931Y-51181678D01*
X78445316Y-51156933D01*
X78086802Y-51203015D01*
X77744167Y-51318154D01*
X77521514Y-51437164D01*
X77401626Y-51722020D01*
X76317102Y-51722020D01*
X76169744Y-51574662D01*
X75869199Y-51373844D01*
X75535250Y-51235518D01*
X75180732Y-51165000D01*
X74819268Y-51165000D01*
X74464750Y-51235518D01*
X74130801Y-51373844D01*
X73830256Y-51574662D01*
X73574662Y-51830256D01*
X73373844Y-52130801D01*
X73338072Y-52217162D01*
X73338072Y-51800000D01*
X73325812Y-51675518D01*
X73289502Y-51555820D01*
X73230537Y-51445506D01*
X73151185Y-51348815D01*
X73054494Y-51269463D01*
X72944180Y-51210498D01*
X72824482Y-51174188D01*
X72700000Y-51161928D01*
X70736730Y-51161928D01*
X66630000Y-47055199D01*
X66630000Y-42084801D01*
X69033255Y-44488057D01*
X68978320Y-44570273D01*
X68870147Y-44831426D01*
X68815000Y-45108665D01*
X68815000Y-45391335D01*
X68870147Y-45668574D01*
X68978320Y-45929727D01*
X69135363Y-46164759D01*
X69335241Y-46364637D01*
X69570273Y-46521680D01*
X69831426Y-46629853D01*
X70108665Y-46685000D01*
X70391335Y-46685000D01*
X70668574Y-46629853D01*
X70929727Y-46521680D01*
X71164759Y-46364637D01*
X71364637Y-46164759D01*
X71521680Y-45929727D01*
X71629853Y-45668574D01*
X71685000Y-45391335D01*
X71685000Y-45108665D01*
X71640509Y-44884999D01*
X78970198Y-44884999D01*
X79011312Y-44926113D01*
X78975000Y-45108665D01*
X78975000Y-45391335D01*
X79030147Y-45668574D01*
X79138320Y-45929727D01*
X79295363Y-46164759D01*
X79495241Y-46364637D01*
X79730273Y-46521680D01*
X79991426Y-46629853D01*
X80268665Y-46685000D01*
X80551335Y-46685000D01*
X80828574Y-46629853D01*
X81089727Y-46521680D01*
X81324759Y-46364637D01*
X81524637Y-46164759D01*
X81681680Y-45929727D01*
X81789853Y-45668574D01*
X81845000Y-45391335D01*
X81845000Y-45358665D01*
X87815000Y-45358665D01*
X87815000Y-45641335D01*
X87870147Y-45918574D01*
X87978320Y-46179727D01*
X88135363Y-46414759D01*
X88335241Y-46614637D01*
X88570273Y-46771680D01*
X88831426Y-46879853D01*
X89108665Y-46935000D01*
X89391335Y-46935000D01*
X89668574Y-46879853D01*
X89929727Y-46771680D01*
X90164759Y-46614637D01*
X90286694Y-46492702D01*
X93436903Y-46492702D01*
X93508486Y-46736671D01*
X93763996Y-46857571D01*
X94038184Y-46926300D01*
X94320512Y-46940217D01*
X94600130Y-46898787D01*
X94866292Y-46803603D01*
X94991514Y-46736671D01*
X95063097Y-46492702D01*
X94250000Y-45679605D01*
X93436903Y-46492702D01*
X90286694Y-46492702D01*
X90364637Y-46414759D01*
X90521680Y-46179727D01*
X90629853Y-45918574D01*
X90685000Y-45641335D01*
X90685000Y-45570512D01*
X92809783Y-45570512D01*
X92851213Y-45850130D01*
X92946397Y-46116292D01*
X93013329Y-46241514D01*
X93257298Y-46313097D01*
X94070395Y-45500000D01*
X94429605Y-45500000D01*
X95242702Y-46313097D01*
X95486671Y-46241514D01*
X95607571Y-45986004D01*
X95676300Y-45711816D01*
X95690217Y-45429488D01*
X95648787Y-45149870D01*
X95553603Y-44883708D01*
X95486671Y-44758486D01*
X95242702Y-44686903D01*
X94429605Y-45500000D01*
X94070395Y-45500000D01*
X93257298Y-44686903D01*
X93013329Y-44758486D01*
X92892429Y-45013996D01*
X92823700Y-45288184D01*
X92809783Y-45570512D01*
X90685000Y-45570512D01*
X90685000Y-45358665D01*
X90629853Y-45081426D01*
X90521680Y-44820273D01*
X90364637Y-44585241D01*
X90286694Y-44507298D01*
X93436903Y-44507298D01*
X94250000Y-45320395D01*
X95063097Y-44507298D01*
X94991514Y-44263329D01*
X94736004Y-44142429D01*
X94461816Y-44073700D01*
X94179488Y-44059783D01*
X93899870Y-44101213D01*
X93633708Y-44196397D01*
X93508486Y-44263329D01*
X93436903Y-44507298D01*
X90286694Y-44507298D01*
X90164759Y-44385363D01*
X89929727Y-44228320D01*
X89668574Y-44120147D01*
X89391335Y-44065000D01*
X89108665Y-44065000D01*
X88831426Y-44120147D01*
X88570273Y-44228320D01*
X88335241Y-44385363D01*
X88135363Y-44585241D01*
X87978320Y-44820273D01*
X87870147Y-45081426D01*
X87815000Y-45358665D01*
X81845000Y-45358665D01*
X81845000Y-45108665D01*
X81789853Y-44831426D01*
X81681680Y-44570273D01*
X81524637Y-44335241D01*
X81324759Y-44135363D01*
X81089727Y-43978320D01*
X80828574Y-43870147D01*
X80551335Y-43815000D01*
X80268665Y-43815000D01*
X80086113Y-43851312D01*
X79848803Y-43614001D01*
X79825000Y-43584998D01*
X79709275Y-43490025D01*
X79577246Y-43419453D01*
X79433985Y-43375996D01*
X79322332Y-43364999D01*
X79322321Y-43364999D01*
X79284999Y-43361323D01*
X79247677Y-43364999D01*
X70059801Y-43364999D01*
X68429801Y-41735000D01*
X68537002Y-41735000D01*
X68537002Y-41570156D01*
X68766890Y-41691476D01*
X68914099Y-41646825D01*
X69176920Y-41521641D01*
X69410269Y-41347588D01*
X69605178Y-41131355D01*
X69674805Y-41014466D01*
X69796525Y-41196632D01*
X70003368Y-41403475D01*
X70246589Y-41565990D01*
X70516842Y-41677932D01*
X70803740Y-41735000D01*
X71096260Y-41735000D01*
X71383158Y-41677932D01*
X71653411Y-41565990D01*
X71896632Y-41403475D01*
X72103475Y-41196632D01*
X72220000Y-41022240D01*
X72336525Y-41196632D01*
X72543368Y-41403475D01*
X72786589Y-41565990D01*
X73056842Y-41677932D01*
X73343740Y-41735000D01*
X73636260Y-41735000D01*
X73923158Y-41677932D01*
X74193411Y-41565990D01*
X74436632Y-41403475D01*
X74643475Y-41196632D01*
X74760000Y-41022240D01*
X74876525Y-41196632D01*
X75083368Y-41403475D01*
X75326589Y-41565990D01*
X75596842Y-41677932D01*
X75883740Y-41735000D01*
X76176260Y-41735000D01*
X76463158Y-41677932D01*
X76733411Y-41565990D01*
X76976632Y-41403475D01*
X77183475Y-41196632D01*
X77300000Y-41022240D01*
X77416525Y-41196632D01*
X77623368Y-41403475D01*
X77866589Y-41565990D01*
X78136842Y-41677932D01*
X78423740Y-41735000D01*
X78716260Y-41735000D01*
X79003158Y-41677932D01*
X79273411Y-41565990D01*
X79516632Y-41403475D01*
X79723475Y-41196632D01*
X79840000Y-41022240D01*
X79956525Y-41196632D01*
X80163368Y-41403475D01*
X80406589Y-41565990D01*
X80676842Y-41677932D01*
X80963740Y-41735000D01*
X81256260Y-41735000D01*
X81543158Y-41677932D01*
X81813411Y-41565990D01*
X82056632Y-41403475D01*
X82263475Y-41196632D01*
X82380000Y-41022240D01*
X82496525Y-41196632D01*
X82703368Y-41403475D01*
X82946589Y-41565990D01*
X83216842Y-41677932D01*
X83503740Y-41735000D01*
X83796260Y-41735000D01*
X84083158Y-41677932D01*
X84353411Y-41565990D01*
X84596632Y-41403475D01*
X84803475Y-41196632D01*
X84920000Y-41022240D01*
X85036525Y-41196632D01*
X85243368Y-41403475D01*
X85486589Y-41565990D01*
X85756842Y-41677932D01*
X86043740Y-41735000D01*
X86336260Y-41735000D01*
X86623158Y-41677932D01*
X86893411Y-41565990D01*
X87136632Y-41403475D01*
X87343475Y-41196632D01*
X87465195Y-41014466D01*
X87534822Y-41131355D01*
X87729731Y-41347588D01*
X87963080Y-41521641D01*
X88225901Y-41646825D01*
X88373110Y-41691476D01*
X88603000Y-41570155D01*
X88603000Y-40377000D01*
X88583000Y-40377000D01*
X88583000Y-40123000D01*
X88603000Y-40123000D01*
X88603000Y-40103000D01*
X88857000Y-40103000D01*
X88857000Y-40123000D01*
X88877000Y-40123000D01*
X88877000Y-40377000D01*
X88857000Y-40377000D01*
X88857000Y-41570155D01*
X89086890Y-41691476D01*
X89234099Y-41646825D01*
X89496920Y-41521641D01*
X89730269Y-41347588D01*
X89925178Y-41131355D01*
X89994805Y-41014466D01*
X90116525Y-41196632D01*
X90323368Y-41403475D01*
X90566589Y-41565990D01*
X90836842Y-41677932D01*
X91123740Y-41735000D01*
X91416260Y-41735000D01*
X91703158Y-41677932D01*
X91973411Y-41565990D01*
X92216632Y-41403475D01*
X92423475Y-41196632D01*
X92540000Y-41022240D01*
X92656525Y-41196632D01*
X92863368Y-41403475D01*
X93106589Y-41565990D01*
X93376842Y-41677932D01*
X93663740Y-41735000D01*
X93956260Y-41735000D01*
X94243158Y-41677932D01*
X94513411Y-41565990D01*
X94756632Y-41403475D01*
X94963475Y-41196632D01*
X95080000Y-41022240D01*
X95196525Y-41196632D01*
X95403368Y-41403475D01*
X95646589Y-41565990D01*
X95916842Y-41677932D01*
X96203740Y-41735000D01*
X96496260Y-41735000D01*
X96783158Y-41677932D01*
X97053411Y-41565990D01*
X97296632Y-41403475D01*
X97503475Y-41196632D01*
X97620000Y-41022240D01*
X97736525Y-41196632D01*
X97943368Y-41403475D01*
X98186589Y-41565990D01*
X98456842Y-41677932D01*
X98743740Y-41735000D01*
X99036260Y-41735000D01*
X99323158Y-41677932D01*
X99593411Y-41565990D01*
X99836632Y-41403475D01*
X100043475Y-41196632D01*
X100160000Y-41022240D01*
X100276525Y-41196632D01*
X100483368Y-41403475D01*
X100726589Y-41565990D01*
X100996842Y-41677932D01*
X101283740Y-41735000D01*
X101576260Y-41735000D01*
X101863158Y-41677932D01*
X102133411Y-41565990D01*
X102376632Y-41403475D01*
X102583475Y-41196632D01*
X102700000Y-41022240D01*
X102816525Y-41196632D01*
X103023368Y-41403475D01*
X103266589Y-41565990D01*
X103536842Y-41677932D01*
X103823740Y-41735000D01*
X104116260Y-41735000D01*
X104403158Y-41677932D01*
X104673411Y-41565990D01*
X104916632Y-41403475D01*
X105123475Y-41196632D01*
X105245195Y-41014466D01*
X105314822Y-41131355D01*
X105509731Y-41347588D01*
X105743080Y-41521641D01*
X106005901Y-41646825D01*
X106153110Y-41691476D01*
X106383000Y-41570155D01*
X106383000Y-40377000D01*
X106637000Y-40377000D01*
X106637000Y-41570155D01*
X106866890Y-41691476D01*
X107014099Y-41646825D01*
X107276920Y-41521641D01*
X107510269Y-41347588D01*
X107705178Y-41131355D01*
X107854157Y-40881252D01*
X107951481Y-40606891D01*
X107830814Y-40377000D01*
X106637000Y-40377000D01*
X106383000Y-40377000D01*
X106363000Y-40377000D01*
X106363000Y-40123000D01*
X106383000Y-40123000D01*
X106383000Y-40103000D01*
X106637000Y-40103000D01*
X106637000Y-40123000D01*
X107830814Y-40123000D01*
X107951481Y-39893109D01*
X107854157Y-39618748D01*
X107705178Y-39368645D01*
X107510269Y-39152412D01*
X107280594Y-38981100D01*
X107456632Y-38863475D01*
X107663475Y-38656632D01*
X107825990Y-38413411D01*
X107937932Y-38143158D01*
X107995000Y-37856260D01*
X107995000Y-37563740D01*
X107937932Y-37276842D01*
X107825990Y-37006589D01*
X107663475Y-36763368D01*
X107456632Y-36556525D01*
X107213411Y-36394010D01*
X106943158Y-36282068D01*
X106656260Y-36225000D01*
X106363740Y-36225000D01*
X106076842Y-36282068D01*
X105806589Y-36394010D01*
X105563368Y-36556525D01*
X105356525Y-36763368D01*
X105240000Y-36937760D01*
X105123475Y-36763368D01*
X104916632Y-36556525D01*
X104673411Y-36394010D01*
X104403158Y-36282068D01*
X104116260Y-36225000D01*
X103823740Y-36225000D01*
X103536842Y-36282068D01*
X103266589Y-36394010D01*
X103023368Y-36556525D01*
X102816525Y-36763368D01*
X102700000Y-36937760D01*
X102583475Y-36763368D01*
X102376632Y-36556525D01*
X102133411Y-36394010D01*
X101863158Y-36282068D01*
X101576260Y-36225000D01*
X101283740Y-36225000D01*
X100996842Y-36282068D01*
X100726589Y-36394010D01*
X100483368Y-36556525D01*
X100276525Y-36763368D01*
X100154805Y-36945534D01*
X100085178Y-36828645D01*
X99890269Y-36612412D01*
X99656920Y-36438359D01*
X99394099Y-36313175D01*
X99246890Y-36268524D01*
X99017000Y-36389845D01*
X99017000Y-37583000D01*
X99037000Y-37583000D01*
X99037000Y-37837000D01*
X99017000Y-37837000D01*
X99017000Y-37857000D01*
X98763000Y-37857000D01*
X98763000Y-37837000D01*
X98743000Y-37837000D01*
X98743000Y-37583000D01*
X98763000Y-37583000D01*
X98763000Y-36389845D01*
X98533110Y-36268524D01*
X98385901Y-36313175D01*
X98123080Y-36438359D01*
X97889731Y-36612412D01*
X97694822Y-36828645D01*
X97625195Y-36945534D01*
X97503475Y-36763368D01*
X97296632Y-36556525D01*
X97053411Y-36394010D01*
X96783158Y-36282068D01*
X96496260Y-36225000D01*
X96203740Y-36225000D01*
X95916842Y-36282068D01*
X95646589Y-36394010D01*
X95403368Y-36556525D01*
X95196525Y-36763368D01*
X95074805Y-36945534D01*
X95005178Y-36828645D01*
X94810269Y-36612412D01*
X94576920Y-36438359D01*
X94314099Y-36313175D01*
X94166890Y-36268524D01*
X93937000Y-36389845D01*
X93937000Y-37583000D01*
X93957000Y-37583000D01*
X93957000Y-37837000D01*
X93937000Y-37837000D01*
X93937000Y-37857000D01*
X93683000Y-37857000D01*
X93683000Y-37837000D01*
X93663000Y-37837000D01*
X93663000Y-37583000D01*
X93683000Y-37583000D01*
X93683000Y-36389845D01*
X93453110Y-36268524D01*
X93305901Y-36313175D01*
X93043080Y-36438359D01*
X92809731Y-36612412D01*
X92614822Y-36828645D01*
X92545195Y-36945534D01*
X92423475Y-36763368D01*
X92216632Y-36556525D01*
X91973411Y-36394010D01*
X91703158Y-36282068D01*
X91416260Y-36225000D01*
X91123740Y-36225000D01*
X90836842Y-36282068D01*
X90566589Y-36394010D01*
X90323368Y-36556525D01*
X90116525Y-36763368D01*
X90000000Y-36937760D01*
X89883475Y-36763368D01*
X89676632Y-36556525D01*
X89433411Y-36394010D01*
X89163158Y-36282068D01*
X88876260Y-36225000D01*
X88583740Y-36225000D01*
X88296842Y-36282068D01*
X88026589Y-36394010D01*
X87783368Y-36556525D01*
X87576525Y-36763368D01*
X87460000Y-36937760D01*
X87343475Y-36763368D01*
X87136632Y-36556525D01*
X86893411Y-36394010D01*
X86623158Y-36282068D01*
X86336260Y-36225000D01*
X86043740Y-36225000D01*
X85756842Y-36282068D01*
X85486589Y-36394010D01*
X85243368Y-36556525D01*
X85036525Y-36763368D01*
X84920000Y-36937760D01*
X84803475Y-36763368D01*
X84596632Y-36556525D01*
X84353411Y-36394010D01*
X84083158Y-36282068D01*
X83796260Y-36225000D01*
X83503740Y-36225000D01*
X83216842Y-36282068D01*
X82946589Y-36394010D01*
X82703368Y-36556525D01*
X82496525Y-36763368D01*
X82374805Y-36945534D01*
X82305178Y-36828645D01*
X82110269Y-36612412D01*
X81876920Y-36438359D01*
X81614099Y-36313175D01*
X81466890Y-36268524D01*
X81237000Y-36389845D01*
X81237000Y-37583000D01*
X81257000Y-37583000D01*
X81257000Y-37837000D01*
X81237000Y-37837000D01*
X81237000Y-37857000D01*
X80983000Y-37857000D01*
X80983000Y-37837000D01*
X80963000Y-37837000D01*
X80963000Y-37583000D01*
X80983000Y-37583000D01*
X80983000Y-36389845D01*
X80753110Y-36268524D01*
X80605901Y-36313175D01*
X80343080Y-36438359D01*
X80109731Y-36612412D01*
X79914822Y-36828645D01*
X79845195Y-36945534D01*
X79723475Y-36763368D01*
X79516632Y-36556525D01*
X79273411Y-36394010D01*
X79003158Y-36282068D01*
X78716260Y-36225000D01*
X78423740Y-36225000D01*
X78136842Y-36282068D01*
X77866589Y-36394010D01*
X77623368Y-36556525D01*
X77416525Y-36763368D01*
X77300000Y-36937760D01*
X77183475Y-36763368D01*
X76976632Y-36556525D01*
X76733411Y-36394010D01*
X76463158Y-36282068D01*
X76176260Y-36225000D01*
X75883740Y-36225000D01*
X75596842Y-36282068D01*
X75326589Y-36394010D01*
X75083368Y-36556525D01*
X74876525Y-36763368D01*
X74754805Y-36945534D01*
X74685178Y-36828645D01*
X74490269Y-36612412D01*
X74256920Y-36438359D01*
X73994099Y-36313175D01*
X73846890Y-36268524D01*
X73617000Y-36389845D01*
X73617000Y-37583000D01*
X73637000Y-37583000D01*
X73637000Y-37837000D01*
X73617000Y-37837000D01*
X73617000Y-37857000D01*
X73363000Y-37857000D01*
X73363000Y-37837000D01*
X73343000Y-37837000D01*
X73343000Y-37583000D01*
X73363000Y-37583000D01*
X73363000Y-36389845D01*
X73133110Y-36268524D01*
X72985901Y-36313175D01*
X72723080Y-36438359D01*
X72489731Y-36612412D01*
X72294822Y-36828645D01*
X72225195Y-36945534D01*
X72103475Y-36763368D01*
X71896632Y-36556525D01*
X71653411Y-36394010D01*
X71383158Y-36282068D01*
X71096260Y-36225000D01*
X70803740Y-36225000D01*
X70516842Y-36282068D01*
X70246589Y-36394010D01*
X70003368Y-36556525D01*
X69796525Y-36763368D01*
X69680000Y-36937760D01*
X69563475Y-36763368D01*
X69356632Y-36556525D01*
X69113411Y-36394010D01*
X68843158Y-36282068D01*
X68556260Y-36225000D01*
X68263740Y-36225000D01*
X67976842Y-36282068D01*
X67706589Y-36394010D01*
X67463368Y-36556525D01*
X67256525Y-36763368D01*
X67140000Y-36937760D01*
X67023475Y-36763368D01*
X66816632Y-36556525D01*
X66573411Y-36394010D01*
X66303158Y-36282068D01*
X66016260Y-36225000D01*
X65723740Y-36225000D01*
X65436842Y-36282068D01*
X65166589Y-36394010D01*
X64923368Y-36556525D01*
X64716525Y-36763368D01*
X64594805Y-36945534D01*
X64525178Y-36828645D01*
X64330269Y-36612412D01*
X64096920Y-36438359D01*
X63834099Y-36313175D01*
X63686890Y-36268524D01*
X63457000Y-36389845D01*
X63457000Y-37583000D01*
X63477000Y-37583000D01*
X63477000Y-37837000D01*
X63457000Y-37837000D01*
X63457000Y-37857000D01*
X63203000Y-37857000D01*
X63203000Y-37837000D01*
X63183000Y-37837000D01*
X63183000Y-37583000D01*
X63203000Y-37583000D01*
X63203000Y-36389845D01*
X62973110Y-36268524D01*
X62825901Y-36313175D01*
X62563080Y-36438359D01*
X62329731Y-36612412D01*
X62134822Y-36828645D01*
X62065195Y-36945534D01*
X61943475Y-36763368D01*
X61736632Y-36556525D01*
X61493411Y-36394010D01*
X61223158Y-36282068D01*
X60936260Y-36225000D01*
X60643740Y-36225000D01*
X60356842Y-36282068D01*
X60086589Y-36394010D01*
X59843368Y-36556525D01*
X59636525Y-36763368D01*
X59520000Y-36937760D01*
X59403475Y-36763368D01*
X59196632Y-36556525D01*
X58953411Y-36394010D01*
X58683158Y-36282068D01*
X58396260Y-36225000D01*
X58103740Y-36225000D01*
X57816842Y-36282068D01*
X57546589Y-36394010D01*
X57303368Y-36556525D01*
X57096525Y-36763368D01*
X56934010Y-37006589D01*
X56822068Y-37276842D01*
X56765000Y-37563740D01*
X56765000Y-37856260D01*
X56822068Y-38143158D01*
X56934010Y-38413411D01*
X57096525Y-38656632D01*
X57228380Y-38788487D01*
X57155820Y-38810498D01*
X57045506Y-38869463D01*
X56948815Y-38948815D01*
X56869463Y-39045506D01*
X56835000Y-39109981D01*
X56835000Y-38671531D01*
X56706838Y-38027216D01*
X56455439Y-37420285D01*
X56090464Y-36874061D01*
X55625939Y-36409536D01*
X55289897Y-36185000D01*
X109710103Y-36185000D01*
X109374061Y-36409536D01*
G37*
%TD.AperFunction*%
D18*
X68537000Y-40123000D02*
X68557000Y-40123000D01*
X68557000Y-40377000D01*
X68537000Y-40377000D01*
X68537000Y-40397000D01*
X68283000Y-40397000D01*
X68283000Y-40377000D01*
X68263000Y-40377000D01*
X68263000Y-40123000D01*
X68283000Y-40123000D01*
X68283000Y-40103000D01*
X68537000Y-40103000D01*
X68537000Y-40123000D01*
%TA.AperFunction,Conductor*%
D19*
G36*
X68537000Y-40123000D02*
G01*
X68557000Y-40123000D01*
X68557000Y-40377000D01*
X68537000Y-40377000D01*
X68537000Y-40397000D01*
X68283000Y-40397000D01*
X68283000Y-40377000D01*
X68263000Y-40377000D01*
X68263000Y-40123000D01*
X68283000Y-40123000D01*
X68283000Y-40103000D01*
X68537000Y-40103000D01*
X68537000Y-40123000D01*
G37*
%TD.AperFunction*%
%TD*%
M02*
